<?xml version="1.0" encoding="utf-8" ?><svg xmlns="http://www.w3.org/2000/svg" xmlns:xlink="http://www.w3.org/1999/xlink" width="2992" height="587" viewBox="0 0 2992 587"><clipPath id="cl_4"><rect width="2992" height="587"/></clipPath><g clip-path="url(#cl_4)"><path fill="#392208" transform="translate(-577 -606)" d="M1949.81 779.984C1979.75 780.174 1999.19 785.723 2022.14 806.267C2025.52 809.296 2034.86 818.367 2038.48 819.96C2039.92 815.359 2038.7 797.141 2038.38 791.089C2037.18 776.349 2038.94 759.651 2038.54 745.158C2037.57 713.956 2042.68 678.019 2074.29 663.219C2112.37 645.388 2185.76 648.38 2206.23 692.187C2222.86 727.777 2213.88 780.361 2215.75 819.242C2215.88 821.889 2216.47 823.986 2218.45 825.745C2223.71 824.855 2239.29 807.907 2243.89 803.321C2281.23 766.086 2334.59 774.627 2368.35 811.851C2373.72 817.771 2384.8 839.979 2390.48 842.188C2396.64 834.631 2401.7 825.059 2407.64 818.207C2421.74 801.95 2449 794.023 2469.01 788.653C2469.51 788.643 2470.01 788.632 2470.51 788.622C2553.18 770.408 2653.96 782.454 2684.21 875.242C2692.91 901.95 2692.74 918.265 2694.13 946.022C2694.84 980.993 2695.19 1015.97 2695.19 1050.95C2695.26 1072.13 2696.61 1097.84 2692.48 1118.1C2685.43 1152.7 2647.33 1165.93 2615.94 1165.67C2594.09 1165.49 2580.93 1160.37 2561.83 1151.36C2551.27 1155.37 2539.42 1160.31 2528.78 1163.05C2482.38 1175 2427.63 1162.36 2395.33 1125.74C2393.65 1123.83 2388.58 1118.5 2386.68 1118.15C2380.37 1123.55 2375.14 1131.49 2369.38 1137.56C2353.12 1154.74 2337.89 1160.71 2315.81 1166.22C2280.99 1169.73 2255.29 1161.79 2235.05 1130.8C2211.1 1094.14 2216.26 1124.31 2201.13 1139.52C2168.92 1171.87 2108.41 1174.36 2070.09 1152.13C2061.98 1147.37 2050.14 1133.77 2042.93 1126.66C2039.02 1127.05 2033.8 1132.02 2031.18 1134.9C1998.34 1170.89 1943.28 1182.68 1906.18 1145.93C1896.21 1136.04 1889.28 1123.38 1880.56 1112.41C1878.85 1110.26 1880.11 1110.67 1877.32 1110.33C1873.27 1113.44 1866.89 1130.33 1861.44 1136.77C1820.37 1185.21 1707.22 1177.49 1698.44 1103.42C1696.92 1095.45 1696.15 1087.35 1696.13 1079.23C1696.08 1074.54 1697.56 1058.05 1693.49 1055.71C1689.7 1060.21 1684.4 1073.26 1681.65 1079.16C1679.75 1081.52 1676.42 1087.57 1674.67 1090.53C1614.57 1192.29 1438.37 1194.13 1372.24 1098.41C1367.56 1091.64 1359.61 1077.91 1354.03 1072.63C1353.57 1072.8 1353.1 1072.97 1352.64 1073.14C1326.13 1169.53 1223.85 1165.53 1142.92 1165.39C1118.34 1164.92 1093.79 1165.51 1069.48 1161.41C1047.66 1157.73 1033.4 1144.09 1024.43 1124.34C1021.42 1117.72 1019.65 1109.65 1015.7 1103.62C1013.15 1103.74 1011.98 1104.64 1010.06 1106.56C984.507 1132.12 960.166 1157.5 923.663 1166.51C879.807 1177.34 858.023 1143.27 836.039 1112.13C825.423 1096.92 814.499 1081.92 803.275 1067.15C800.054 1062.88 787.849 1044.5 782.223 1046.22C780.822 1050.69 780.596 1064.06 780.794 1068.79C783.663 1137.37 745.757 1165.22 678.92 1163.61C639.301 1162.66 595.32 1146.38 588.599 1100.55C586.395 1085.51 587.239 1068.96 587.186 1053.57L587.064 974.305L587.189 822.775C587.291 794.894 587.342 766.824 588.011 739.019C587.698 722.97 595.074 701.931 607.511 691.222C648.292 656.106 759.57 656.58 776.614 718.812C780.24 732.053 780.554 745.862 780.915 759.495C781.072 765.426 780.262 773.19 784.097 777.597C790.325 776.648 795.017 766.778 799.352 762.09C820.416 739.618 838.414 714.579 857.199 690.338C889.025 649.272 943.032 663.315 977.036 693.368C996.914 710.936 1014.19 730.836 1016.81 758.2C1020.28 794.61 982.255 831.014 959.846 856.552C946.599 871.596 933.516 886.784 920.598 902.111C918.75 904.167 918.27 904.319 917.722 907.037C920.402 918.413 1000.71 1012.85 1013.46 1028.54C1018.29 1026.03 1016.15 994.869 1016.12 987.859L1015.93 898.837C1015.94 871.392 1012.85 835.831 1030.09 812.871C1054.81 779.96 1108.99 784.852 1145.89 785.124C1206.18 785.57 1285.95 778.524 1322.3 837.31C1346.86 877.025 1343.71 923.13 1315.7 960.203C1320.22 964.509 1327.84 973.595 1333.38 973.853C1334.88 970.885 1335.46 954.513 1335.87 950.184C1343.99 863.692 1400.44 793.592 1489.18 782.681C1560.81 773.873 1637.13 791.941 1678.31 855.735C1682.87 862.707 1689.86 876.398 1696.02 881.102C1701.61 880.119 1699.37 864.486 1699.47 859.891C1700.54 811.06 1696.37 755.396 1701.35 707.327C1704.96 672.508 1745.05 654.596 1775.98 655.01C1800.88 655.344 1831.58 655.747 1851.53 675.456C1884.68 708.304 1869.9 770.477 1873.6 813.054C1874.03 818.518 1873.88 822.239 1877.87 825.945C1883.92 825.737 1909.5 795.358 1920.74 789.812C1933.06 783.731 1936.15 783.074 1949.81 779.984ZM2323.11 966.678C2334.09 980.985 2344.91 995.354 2356.77 1008.94C2359.17 1011.69 2363.08 1015.68 2365.01 1018.61C2367.62 1020.69 2368.34 1022.09 2370.99 1022.2C2374.02 1018.03 2376.65 1007.31 2378.21 1002.12C2387.62 970.843 2399.47 962.383 2422.6 943.922C2412.9 931.764 2402.98 919.733 2395.11 906.276C2392.72 902.172 2388.83 893.176 2385.05 891.417C2380.73 894.29 2372.77 906.246 2369.45 911.359C2356.28 931.636 2337.9 948.155 2323.11 966.678ZM1978.91 964.969C1985.02 972.662 2004.22 997.407 2010.82 1002.76C2016.74 1009.81 2026.91 1024.21 2034.56 1027.62L2036.96 1027.51C2037.39 1027.03 2037.82 1026.55 2038.24 1026.07C2038.59 1005.94 2037.36 985.825 2037.47 965.683C2037.56 947.87 2037.81 929.995 2037.1 912.2C2036.97 909.011 2036.71 908.687 2033.98 906.884C2017.52 923.579 1994.44 947.488 1978.91 964.969Z"/><path fill="#B69365" transform="translate(-577 -606)" d="M904.16 697.271C932.512 695.009 988.254 735.289 983.788 768.187C981.514 784.934 953.998 813.565 942.052 827.677L875.494 906.623C908.288 951.087 944.121 993.62 977.749 1037.44C1000.21 1066.72 985.633 1089.82 960.904 1109.79C942.706 1124.49 909.24 1148.56 887.668 1126.51C874.605 1113.16 863.167 1095.55 852.024 1080.4L797.061 1005.39C786.59 991.016 775.326 974.539 764.205 960.9C759.733 960.674 753.015 960.96 748.357 961.032C747.086 987.634 747.956 1022.98 747.844 1050.25C748.073 1069.36 751.351 1100.07 738.841 1114.25C729.229 1125.16 711.43 1129.23 697.555 1129.88C662.628 1131.52 620.318 1128.57 620.061 1083.63C619.925 1059.99 619.782 1036.13 619.823 1012.56L619.793 887.719L619.765 792.639C619.773 775.114 619.284 756.737 620.677 739.429C622.923 711.519 651.501 703.14 675.105 702.467C694.41 700.525 743.243 704.689 746.22 731.47C750.648 771.311 747.111 818.941 748.765 859.664C753.479 859.972 758.709 860.057 763.474 860.239C773.486 849.826 789.32 828.698 799.09 816.473L854.761 747.472C866.045 733.309 887.115 701.908 904.16 697.271Z"/><path fill="#B69365" transform="translate(-577 -606)" d="M2108.86 686.32C2136.98 683.904 2181.47 685.59 2183.4 723.212C2184.8 750.539 2184.59 778.713 2184.16 806.134C2183.56 843.915 2185.69 882.886 2183.93 920.511C2192.62 910.152 2201.38 899.852 2210.2 889.61C2229.66 867.144 2258.86 832.03 2283.17 815.259C2305.51 799.849 2347.74 828.386 2354.36 853.341C2362.37 883.59 2335.31 904.572 2316.14 923.953L2276.29 964.287C2294.65 987.402 2355.31 1050.28 2362.22 1071.99C2365.74 1083.03 2361.8 1093.13 2357.01 1102.95C2352.6 1109.8 2347.05 1115.85 2340.6 1120.84C2285.97 1163.81 2253.75 1102.87 2225.93 1064.08C2211.87 1044.48 2197.09 1025.18 2183.04 1005.56C2183.18 1027.09 2186.57 1099.28 2178.78 1113.7C2173.86 1122.8 2161.87 1127.96 2152.25 1130.43C2133.85 1135.15 2105.6 1133.87 2088.96 1123.92C2080.7 1118.98 2075.18 1112 2073.01 1102.57C2068.44 1082.77 2070.74 1057.07 2070.86 1036.55L2070.75 969.045L2070.72 812.015C2070.79 784.144 2070.46 756.309 2071.51 728.451C2072.58 700.059 2082.55 691.647 2108.86 686.32Z"/><path fill="#B69365" transform="translate(-577 -606)" d="M1771.28 686.352C1801.9 684.05 1841.47 688.464 1842.48 727.317C1843.74 775.596 1842.21 823.88 1843.01 872.193C1843.27 887.89 1843.76 904.79 1842.67 920.36L1844.05 918.57C1870.52 884.784 1903.94 847.351 1936.05 818.681C1952.5 803.993 1980.9 813.498 1995.63 827.384C2040.03 869.229 1997.78 900.92 1967.27 931.446C1956.47 942.238 1945.86 953.219 1935.44 964.384C1952.37 987.728 2017.54 1051.49 2021.86 1074.4C2024.22 1086.87 2019.49 1097.16 2012.88 1107.26C2007.14 1114.06 2003.24 1118.13 1996.08 1123.13C1949.94 1154.84 1921.5 1117.38 1896.99 1081.06C1879.65 1055.36 1859.29 1030.55 1841.87 1004.94C1842.47 1025.69 1845.46 1099.72 1837.23 1113.78C1832.48 1121.88 1823.3 1127.31 1814.35 1129.55C1794.54 1134.5 1766.03 1134.85 1748.01 1123.92C1739.62 1118.83 1734.43 1112.01 1732.27 1102.45C1728.7 1086.69 1730.72 1066.66 1730.63 1050.36C1730.3 1017.17 1730.16 983.972 1730.23 950.777L1730.51 814.296C1730.47 786.112 1730.05 758.073 1730.83 729.885C1731.69 699.229 1742.42 690.895 1771.28 686.352Z"/><path fill="#B69365" transform="translate(-577 -606)" d="M1505.11 813.388C1505.85 813.301 1506.58 813.224 1507.32 813.158C1599.23 804.851 1670.43 857.736 1676.34 951.829C1682.18 1044.82 1638.66 1126.96 1538.25 1134.48C1499.3 1138.96 1449.42 1127.77 1419.18 1102.07C1354.15 1046.79 1350.47 923.69 1405.73 860.536C1431.37 831.229 1466.81 816.473 1505.11 813.388Z"/><path fill="#392208" transform="translate(-577 -606)" d="M1516.14 900.276C1537.38 898.98 1552.92 906.833 1559.49 928.246C1568.03 956.093 1568.4 995.512 1556.47 1022.51C1551.05 1034.78 1541.83 1040.82 1529.51 1044.83C1508.12 1046.73 1490.31 1038.15 1485.3 1016.36C1477.25 981.329 1472.74 913.154 1516.14 900.276Z"/><path fill="#B69365" transform="translate(-577 -606)" d="M1102.85 817.439C1107.6 817.13 1115.04 816.734 1119.93 816.999C1175.63 820.018 1262.11 801.394 1297.5 856.069C1308.18 872.569 1308.92 896.623 1304.38 914.599C1298.66 937.221 1282.29 952.717 1262.9 964.215C1281.47 971.293 1294.72 977.523 1306.75 993.894C1320.56 1012.69 1324.71 1039.15 1320.79 1061.81C1316.89 1084.4 1307.68 1098.3 1289.34 1111.42C1242.25 1141.02 1164.79 1130.14 1110.47 1132.46C1097.39 1133.01 1069.43 1131.78 1060.01 1122.08C1043.37 1104.93 1048.09 1061.43 1048.24 1037.94L1048.06 970.163L1047.74 898.167C1047.68 883.463 1047.17 868.409 1048.59 853.775C1051.81 820.804 1076.23 818.677 1102.85 817.439Z"/><path fill="#392208" transform="translate(-577 -606)" d="M1158.08 1001.54C1173.7 1000.55 1198.19 999.243 1209.17 1011.71C1221.53 1025.72 1218.94 1045.28 1205.63 1057.17C1192.16 1065.6 1169.27 1063.59 1153.91 1062.15C1152.83 1051.43 1152.02 1015.76 1154.54 1003.32C1154.8 1002.05 1156.38 1002.03 1158.08 1001.54Z"/><path fill="#392208" transform="translate(-577 -606)" d="M1159.98 884.462C1165.34 884.237 1170.71 884.138 1176.07 884.164C1207.37 884.49 1215.82 916.1 1194.61 933.301C1183.19 938.867 1166.73 937.661 1154.33 936.989C1154.07 925.839 1152.2 896.96 1155.38 886.164C1155.7 885.097 1158.5 884.808 1159.98 884.462Z"/><path fill="#B69365" transform="translate(-577 -606)" d="M2513.68 814.361C2540.92 812.322 2572.05 813.559 2597.71 823.25C2622.48 832.735 2642.52 851.579 2653.52 875.715C2671.24 915.057 2663.7 973.043 2665.24 1016.14C2666.21 1043.15 2665.74 1070.97 2665.94 1098.03C2666.26 1121.71 2647.12 1132.03 2626.01 1132.83C2601.62 1133.75 2577.12 1131.8 2567.88 1105.85C2533.4 1141.05 2479.44 1143.61 2437.97 1119.61C2393.59 1091.67 2390.48 1020.98 2424.52 984.462C2459.24 947.207 2517.42 943.831 2564.86 941.343C2568.13 891.733 2523.62 896.952 2489.52 904.34C2472.42 908.045 2451.09 920.839 2435.39 907.848C2426.95 900.707 2421.37 890.033 2420.16 879.13C2416.44 845.547 2434.3 832.566 2464.19 823.982C2481.64 818.971 2495.66 816.495 2513.68 814.361Z"/><path fill="#392208" transform="translate(-577 -606)" d="M2542.9 1010.38C2558.29 1009.34 2561.92 1010.39 2562.55 1025.39C2563.82 1055.74 2545.99 1062.26 2520.22 1062.16C2500.66 1058.32 2493.24 1042.25 2505.41 1025.37C2513.97 1013.49 2529.33 1011.74 2542.9 1010.38Z"/><path fill="#392208" transform="translate(-577 -606)" d="M3023.39 903.95L3020.74 906.838C3020.55 907.963 3020.1 908.627 3020.77 909.613C3024.4 914.973 3029.86 918.736 3034.02 923.653C3045.26 936.947 3100.94 1010.33 3110.08 1011.98C3109.7 1012.63 3109.14 913.148 3108.82 907.744C3103.48 816.057 3123.64 773.357 3224.8 787.331C3242.56 789.785 3262.42 797.535 3272.89 814.122C3277.09 820.779 3281.38 828.925 3286.03 835.506C3290.67 832.751 3294.03 826.675 3297.87 822.866C3314.98 805.871 3336.45 795.911 3359.65 790.176C3363.52 789.219 3367.91 788.667 3368.17 784.385C3363.42 779.26 3335.35 779.211 3321.87 773.406C3295.56 762.08 3284.28 753.274 3272.21 725.328C3264.71 709.538 3259.93 663.618 3265.1 648.197C3279.76 630.433 3337.6 650 3352.17 656.244C3370.86 664.253 3368.95 676.06 3383.01 661.576C3397.42 646.731 3413.09 636.825 3433.6 631.03C3453.49 625.415 3489.47 615.385 3509.82 622.227C3512.27 623.286 3513.99 628.01 3514.31 630.459C3523.86 703.043 3512.9 759.672 3434.35 778.743C3427.31 779.372 3410.56 780.385 3404.83 782.397L3404.79 783.525C3410.39 785.989 3427.85 788.109 3435.01 789.185C3461.98 795.559 3483.28 804.691 3503.61 824.054C3527.49 846.812 3543.66 873.688 3550.75 905.92C3551.71 910.248 3553.18 919.678 3554.74 923.142C3558.17 951.295 3561.67 978.878 3558.03 1007.28C3557.55 1011.03 3556.68 1015.63 3556.55 1019.31C3552.73 1063.89 3521.37 1112.57 3495.4 1133.9C3429.23 1188.25 3342.55 1176.06 3286.17 1117.44C3285.36 1117.79 3284.56 1118.14 3283.75 1118.48C3279.96 1123.21 3279.27 1126.09 3276.12 1130.7C3269.01 1141.11 3259.75 1147.92 3249.13 1154.3C3209.31 1170.17 3146.75 1171.7 3121.09 1129.05C3118.26 1124.35 3116.91 1115.29 3112.03 1113.68C3107.92 1115.56 3090.12 1133.88 3082.97 1139.28C3062.46 1155.04 3036.57 1171.32 3009.47 1168.34C2976.09 1164.34 2962.15 1135.49 2944.39 1112.03C2937.13 1102.45 2900.87 1047.89 2893.57 1047.03C2890.36 1051.37 2892.09 1099.7 2887.57 1112.56C2868.84 1165.76 2799.95 1169.91 2753.98 1156.93C2693.66 1139.88 2701.7 1079.88 2701.62 1030.26L2701.42 929.701L2700.87 817.699C2700.72 793.791 2700.62 769.761 2701.28 745.977C2702.04 718.67 2712.84 692.464 2738.81 680.352C2768.54 666.485 2811.42 666.324 2842.3 675.575C2879.39 686.686 2893 719.345 2891.8 755.487C2891.7 762.068 2890.64 775.14 2893.35 780.477L2895.15 780.878C2903.9 775.014 2957.32 701.047 2968.93 688.27C2978.93 675.833 2994.67 665.935 3011.2 665.454C3068.28 663.792 3144.83 733.869 3112.69 793.717C3102.48 812.733 3085.81 831.285 3072.08 847.527C3056.13 866.58 3039.9 885.389 3023.39 903.95ZM3396.44 1004.22C3400.98 995.949 3403.79 953.569 3395.53 948.553C3390.81 958.862 3390.55 994.618 3396.44 1004.22Z"/><path fill="#B69365" transform="translate(-577 -606)" d="M3008.7 698.235C3026.84 696.017 3038.65 702.647 3053.36 713.118C3067.89 723.248 3086.44 740.581 3088.77 759.181C3091.69 782.431 3058.82 813.275 3044.91 830.215C3023.66 856.113 3001.26 880.657 2980.7 907.056C3004.15 938.275 3028.1 969.123 3052.52 999.589C3060.38 1009.53 3086.7 1041.6 3091.13 1050.6C3094.27 1057.01 3095.4 1064.21 3094.38 1071.27C3090.55 1098.67 3023.26 1157.4 2995.87 1126.2C2981.21 1109.49 2967.89 1090.2 2954.76 1072.01L2875.11 960.722C2869.93 960.751 2864.62 960.92 2859.43 961.021C2857.82 985.748 2858.62 1023.47 2859.06 1048.74C2859.22 1066.98 2862.53 1098.61 2850.43 1112.72C2834.4 1130.56 2804.24 1131.44 2782.01 1129.19C2756.53 1126.61 2734.76 1115.97 2733.96 1087.27C2733.16 1058.71 2733.39 1030.41 2733.46 1001.84L2733.58 870.982L2733.45 786.319C2733.39 738.597 2726.85 703.513 2791.02 701.896C2819.83 701.171 2856.94 704.803 2858.56 741.517C2859.16 754.99 2859.06 768.541 2859.04 782.215C2858.87 808.445 2858.96 834.675 2859.3 860.903C2864.24 861.073 2869.43 860.93 2874.38 860.882C2898.88 829.317 2923.58 797.905 2948.47 766.648C2962.37 748.91 2976.22 730.985 2990.41 713.472C2995.98 706.596 3000.73 702.114 3008.7 698.235Z"/><path fill="#B69365" transform="translate(-577 -606)" d="M3275.3 934.628C3292.72 855.976 3344.6 804.169 3429.7 821.584C3521.02 840.272 3538.94 951.133 3521.83 1028.17C3512.95 1068.19 3492.64 1098.42 3457.81 1120.11C3447.58 1125.67 3436.75 1130.69 3425.16 1132.41C3336.06 1145.63 3289 1089.82 3274.5 1009.67L3253.36 1009.27C3253.12 1039.41 3255.24 1075.33 3251.85 1104.65C3247.91 1138.62 3177.44 1137.3 3156.22 1120.74C3149.44 1115.52 3145.15 1107.71 3144.37 1099.19C3143.16 1086.13 3143.65 1063.25 3143.71 1049.55L3143.7 975.108L3143.57 901.347C3143.5 884.595 3143.22 868.436 3144.42 851.686C3146.55 822.076 3169.63 820.096 3193.56 818.436L3195.01 818.418C3215.26 818.227 3248.93 821.405 3251.64 845.992C3254.67 873.628 3253.26 906.325 3253.16 934.299L3275.3 934.628ZM3396.44 1004.22C3400.98 995.949 3403.79 953.569 3395.53 948.553C3390.81 958.862 3390.55 994.618 3396.44 1004.22Z"/><path fill="#392208" transform="translate(-577 -606)" d="M3390.28 912.159C3407.07 910.235 3420.56 917.768 3425.69 933.949C3434.89 962.971 3439.03 1028.06 3403.84 1041.43C3387.57 1043.94 3374.12 1036.14 3368.58 1020.44C3358.15 990.817 3354.45 926.474 3390.28 912.159ZM3396.44 1004.22C3400.98 995.949 3403.79 953.569 3395.53 948.553C3390.81 958.862 3390.55 994.618 3396.44 1004.22Z"/><path fill="#FEFEFE" fill-opacity="0.26666668" transform="translate(-577 -606)" d="M3395.53 948.553C3403.79 953.569 3400.98 995.949 3396.44 1004.22C3390.55 994.618 3390.81 958.862 3395.53 948.553Z"/><path fill="#939545" transform="translate(-577 -606)" d="M3493.12 638.352C3495.73 638.15 3494.51 637.934 3496.92 639.075C3497.96 641.715 3498.47 643.994 3498.59 646.847C3499.92 677.666 3499.32 707.948 3478.32 732.669C3458.93 755.489 3432.54 758.763 3404.88 760.934C3410.69 739.308 3423.61 717.517 3436.81 699.403C3440.45 694.416 3455.24 678.543 3455.8 675.914L3454.77 674.632L3452.51 674.605C3419.61 693.828 3400.51 716.411 3387.73 752.939C3380.05 725.287 3375.81 702.791 3395.01 678.303C3418.14 648.79 3458.26 642.854 3493.12 638.352Z"/><path fill="#939545" transform="translate(-577 -606)" d="M3281.99 658.846C3306.65 658.574 3347.85 670.963 3365.05 689.407C3363.24 704.274 3361.52 703.927 3361.49 721.683C3352.82 714.226 3327.31 688.044 3317.32 687.457L3317.09 689.106C3320.86 696.101 3327.28 702.424 3332.68 708.413C3347.06 725.979 3355.26 740.769 3363.73 761.451C3296.84 756.598 3279.98 721.716 3281.99 658.846Z"/><path fill="#E4E6DE" fill-opacity="0.30588236" transform="translate(-577 -606)" d="M2895.52 778.039L2939.96 720.307C2949.91 707.46 2965.9 685.322 2977.86 676.001C2986.09 669.554 2995.91 665.452 3006.29 664.131C3033.15 660.504 3060.08 673.817 3080.67 689.893C3101.43 706.11 3119.74 728.048 3123.17 755.019C3126.01 777.316 3115.91 798.172 3102.43 815.226C3092.56 827.724 3031.5 902.698 3024.42 903.842C3024.08 903.898 3023.73 903.914 3023.39 903.95C3039.9 885.389 3056.13 866.58 3072.08 847.527C3085.81 831.285 3102.48 812.733 3112.69 793.717C3144.83 733.869 3068.28 663.792 3011.2 665.454C2994.67 665.935 2978.93 675.833 2968.93 688.27C2957.32 701.047 2903.9 775.014 2895.15 780.878L2893.35 780.477C2890.64 775.14 2891.7 762.068 2891.8 755.487C2893 719.345 2879.39 686.686 2842.3 675.575C2811.42 666.324 2768.54 666.485 2738.81 680.352C2712.84 692.464 2702.04 718.67 2701.28 745.977C2700.62 769.761 2700.72 793.791 2700.87 817.699L2701.42 929.701L2701.62 1030.26C2701.7 1079.88 2693.66 1139.88 2753.98 1156.93C2799.95 1169.91 2868.84 1165.76 2887.57 1112.56C2892.09 1099.7 2890.36 1051.37 2893.57 1047.03C2900.87 1047.89 2937.13 1102.45 2944.39 1112.03C2962.15 1135.49 2976.09 1164.34 3009.47 1168.34C3036.57 1171.32 3062.46 1155.04 3082.97 1139.28C3090.12 1133.88 3107.92 1115.56 3112.03 1113.68C3116.91 1115.29 3118.26 1124.35 3121.09 1129.05C3146.75 1171.7 3209.31 1170.17 3249.13 1154.3C3235.08 1169.38 3187.9 1167.43 3169.18 1163.1C3136.23 1155.47 3128.51 1145.73 3111.29 1118.79C3109.57 1119.32 3097.55 1130.55 3095.25 1132.57C3078.4 1147.47 3044.4 1169.95 3020.89 1170.79C2979.81 1172.27 2961.53 1141.63 2941.59 1113.24L2913.86 1074.58C2909.65 1068.7 2902.06 1057.04 2897.17 1052.84C2892.4 1058.27 2900.48 1108.52 2881.61 1131.12C2845.42 1174.47 2766.43 1174.7 2723.09 1143.55C2705.93 1127.5 2706.34 1120.06 2698.79 1099.76C2698.27 1100.37 2697.38 1111.94 2697.18 1114.14C2696.5 1121.95 2691.29 1128.68 2689.17 1135.13C2673.79 1154.96 2658.45 1162.65 2633.39 1166.06C2604.03 1170.04 2586.8 1165.1 2560.71 1153.19C2521.28 1171.68 2482.41 1174.73 2441.11 1159.58C2429.93 1155.56 2419.42 1149.89 2409.91 1142.77C2404.45 1138.62 2390.14 1123.69 2386.78 1122.57C2368.83 1141.83 2345.21 1167.74 2315.81 1166.22C2337.89 1160.71 2353.12 1154.74 2369.38 1137.56C2375.14 1131.49 2380.37 1123.55 2386.68 1118.15C2388.58 1118.5 2393.65 1123.83 2395.33 1125.74C2427.63 1162.36 2482.38 1175 2528.78 1163.05C2539.42 1160.31 2551.27 1155.37 2561.83 1151.36C2580.93 1160.37 2594.09 1165.49 2615.94 1165.67C2647.33 1165.93 2685.43 1152.7 2692.48 1118.1C2696.61 1097.84 2695.26 1072.13 2695.19 1050.95C2695.19 1015.97 2694.84 980.993 2694.13 946.022C2695.35 934.627 2694.56 926.637 2696.49 914.078L2696.85 926.46C2698.93 918.332 2698.6 892.019 2698.66 882.732L2698.45 792.684C2698.42 771.359 2697.2 744.831 2701.29 724.212C2703.6 712.586 2711.95 702.696 2717.26 693.482L2717.81 692.506C2735.83 673.335 2766.02 668.536 2791.08 667.576C2819.38 666.492 2851.92 670.911 2873.34 691.209C2893.21 710.028 2895.02 734.118 2895.49 759.953C2895.56 765.981 2895.57 772.01 2895.52 778.039Z"/><path fill="#FEFEFE" fill-opacity="0.29411766" transform="translate(-577 -606)" d="M1343.21 898.262C1381.27 807.385 1449.84 772.033 1546.45 780.07C1605.48 784.981 1655.3 811.701 1686.71 862.494C1689.42 866.872 1691.32 871.054 1694.34 875.325C1697.31 873.373 1695.55 841.467 1695.5 835.703L1695.32 757.343C1695.35 712.132 1694.17 669.793 1749.33 656.701C1778.84 649.699 1818.23 651.466 1844.82 667.243C1875.66 685.538 1876.88 720.83 1877.06 752.746L1877.24 794.406C1877.28 800.802 1877.12 815.702 1878.48 821.405C1884.12 820.077 1898.2 802.845 1903.86 798.802C1916.47 789.789 1933.88 778.266 1949.81 779.984C1936.15 783.074 1933.06 783.731 1920.74 789.812C1909.5 795.358 1883.92 825.737 1877.87 825.945C1873.88 822.239 1874.03 818.518 1873.6 813.054C1869.9 770.477 1884.68 708.304 1851.53 675.456C1831.58 655.747 1800.88 655.344 1775.98 655.01C1745.05 654.596 1704.96 672.508 1701.35 707.327C1696.37 755.396 1700.54 811.06 1699.47 859.891C1699.37 864.486 1701.61 880.119 1696.02 881.102C1689.86 876.398 1682.87 862.707 1678.31 855.735C1637.13 791.941 1560.81 773.873 1489.18 782.681C1400.44 793.592 1343.99 863.692 1335.87 950.184C1335.46 954.513 1334.88 970.885 1333.38 973.853C1327.84 973.595 1320.22 964.509 1315.7 960.203C1343.71 923.13 1346.86 877.025 1322.3 837.31C1285.95 778.524 1206.18 785.57 1145.89 785.124C1108.99 784.852 1054.81 779.96 1030.09 812.871C1012.85 835.831 1015.94 871.392 1015.93 898.837L1016.12 987.859C1016.15 994.869 1018.29 1026.03 1013.46 1028.54C1000.71 1012.85 920.402 918.413 917.722 907.037C918.27 904.319 918.75 904.167 920.598 902.111C920.348 913.854 932.178 923.48 938.647 932.855C959.474 963.038 989.366 990.673 1010.24 1020.14C1012.34 1018.98 1012.82 1019.24 1012.76 1015.4C1012.61 1003.76 1012.05 991.622 1011.78 979.997C1011.34 954.551 1011.16 929.102 1011.24 903.653C1011.19 883.572 1010.05 861.168 1013.63 841.421C1026.82 768.718 1122.08 784.217 1176.02 783.129C1238.6 781.867 1311.05 789.549 1335.41 856.843C1341.33 873.182 1342.01 881.028 1343.21 898.262ZM1327.53 967.278L1330.04 969.019C1332.92 964.907 1330.67 956.349 1331.64 951.467C1332.93 944.965 1334.77 944.265 1334.47 937.092L1333.84 936.045C1331.34 944.799 1320.89 954.446 1322.47 962.167C1324.34 964.207 1325.51 965.412 1327.53 967.278Z"/><path fill="#FEFDFE" fill-opacity="0.011764706" transform="translate(-577 -606)" d="M1333.84 936.045L1334.47 937.092C1334.77 944.265 1332.93 944.965 1331.64 951.467C1330.67 956.349 1332.92 964.907 1330.04 969.019L1327.53 967.278C1325.51 965.412 1324.34 964.207 1322.47 962.167C1320.89 954.446 1331.34 944.799 1333.84 936.045Z"/><path fill="#FEFEFE" fill-opacity="0.18431373" transform="translate(-577 -606)" d="M2699.57 722.574C2704.14 717.284 2708.25 696.551 2717.81 692.506L2717.26 693.482C2711.95 702.696 2703.6 712.586 2701.29 724.212C2697.2 744.831 2698.42 771.359 2698.45 792.684L2698.66 882.732C2698.6 892.019 2698.93 918.332 2696.85 926.46L2696.49 914.078C2694.56 926.637 2695.35 934.627 2694.13 946.022C2692.74 918.265 2692.91 901.95 2684.21 875.242C2653.96 782.454 2553.18 770.408 2470.51 788.622C2470.01 788.632 2469.51 788.643 2469.01 788.653C2473.86 784.995 2498.52 782.053 2506.43 781.113C2545.74 776.439 2592.71 781.733 2627.67 800.872C2644.21 809.923 2669.31 831.002 2676.44 848.817C2676.59 849.201 2676.74 849.584 2676.9 849.967C2685.17 865.043 2692.75 884.561 2695.02 901.627C2700.78 841.543 2692.79 786.104 2699.57 722.574Z"/><path fill="#FEFDFE" fill-opacity="0.011764706" transform="translate(-577 -606)" d="M2676.44 848.817C2680.07 848.378 2682.25 848.783 2684.59 846.7C2685.35 839.733 2684.86 840.614 2689.35 836.234L2690.58 836.976C2690.9 840.353 2687.84 838.145 2686.92 842.003C2695.51 846.629 2689.41 860.24 2693.35 864.903C2694.42 860.648 2693.87 844.451 2693.85 838.912L2693.73 775.754C2693.72 760.597 2691.66 735.075 2699.57 722.574C2692.79 786.104 2700.78 841.543 2695.02 901.627C2692.75 884.561 2685.17 865.043 2676.9 849.967C2676.74 849.584 2676.59 849.201 2676.44 848.817Z"/><path fill="#FEFDFE" fill-opacity="0.011764706" transform="translate(-577 -606)" d="M3554.74 923.142L3556.3 923.088C3556.92 924.887 3557.57 926.536 3557.49 928.483C3557.31 932.675 3563.11 937.346 3563.48 941.029C3565.35 959.982 3566.54 979.368 3565.42 998.384C3565.19 1002.28 3564.04 1010.59 3561.66 1013C3559.07 1015.62 3558.95 1014.15 3556.55 1019.31C3556.68 1015.63 3557.55 1011.03 3558.03 1007.28C3561.67 978.878 3558.17 951.295 3554.74 923.142Z"/><path fill="#FEFDFE" fill-opacity="0.011764706" transform="translate(-577 -606)" d="M2689.17 1135.13C2691.29 1128.68 2696.5 1121.95 2697.18 1114.14C2697.38 1111.94 2698.27 1100.37 2698.79 1099.76C2706.34 1120.06 2705.93 1127.5 2723.09 1143.55C2715.8 1143.81 2706.52 1136.5 2697.59 1137.2C2694.43 1137.45 2692.02 1136.41 2689.17 1135.13Z"/><path fill="#FEFDFE" fill-opacity="0.023529412" transform="translate(-577 -606)" d="M1681.65 1079.16C1684.4 1073.26 1689.7 1060.21 1693.49 1055.71C1697.56 1058.05 1696.08 1074.54 1696.13 1079.23C1696.15 1087.35 1696.92 1095.45 1698.44 1103.42C1689.34 1095.62 1695.32 1089.09 1689.6 1081.57C1686.05 1079.5 1685.84 1079.55 1681.65 1079.16Z"/><path fill="#FEFEFE" fill-opacity="0.098039217" transform="translate(-577 -606)" d="M3435.01 789.185C3427.85 788.109 3410.39 785.989 3404.79 783.525L3404.83 782.397C3410.56 780.385 3427.31 779.372 3434.35 778.743L3433.54 779.128C3432.73 779.506 3420.3 784.373 3420.06 784.424C3424.98 785.556 3431.22 786.304 3435.01 789.185Z"/></g></svg>