<?xml version="1.0" encoding="utf-8" ?><svg xmlns="http://www.w3.org/2000/svg" xmlns:xlink="http://www.w3.org/1999/xlink" width="2320" height="2298" viewBox="0 0 2320 2298"><clipPath id="cl_3"><rect width="2320" height="2298"/></clipPath><g clip-path="url(#cl_3)"><path fill="#3C230D" transform="translate(-917 -819)" d="M2038.56 816.392C2672.13 795.515 3202.74 1292.06 3223.88 1925.62C3245.03 2559.18 2748.71 3090 2115.16 3111.41C1481.23 3132.84 950.022 2636.16 928.864 2002.22C907.705 1368.27 1404.61 837.281 2038.56 816.392Z"/><path fill="#B6BE72" transform="translate(-917 -819)" d="M995.232 1768.72C1046.57 1486.22 1208.25 1235.77 1444.58 1072.69C1688.38 905.362 1988.59 841.549 2279.38 895.244C2567.85 946.643 2823.5 1111.96 2988.73 1353.94C3059.72 1457.78 3111.65 1573.43 3142.1 1695.48C3148.49 1721.91 3151.77 1745.24 3156.7 1771.56L3126.03 1787.88L3124.75 1789.62C3129.62 1810.58 3141 1995.74 3135.54 2007.33C3133.1 1992.06 3132.24 1980.18 3131.22 1964.69C3128.11 1975.55 3132.38 2000.14 3130.49 2012.2C3126.01 2040.67 3131.23 2079.71 3126.51 2106.69C3121.08 2137.71 3113.78 2200.98 3101.87 2228.38C3098.13 2228.51 3099.81 2228.54 3096.84 2228.38C3093.8 2238.72 3077.95 2298.98 3072.17 2302.46L3070.59 2300.69C3066.21 2308.16 3045.07 2364.2 3039.21 2377.73C3018.17 2425.25 2993.47 2471.07 2965.33 2514.77C2813.86 2752.09 2573.57 2918.78 2298.23 2977.53C2026.44 3036.16 1742.49 2984.87 1508.38 2834.86C1338.3 2726.16 1202.85 2571.1 1117.98 2387.96C1100.78 2351.05 1077.7 2296.13 1069.05 2256.32C1038.19 2168.43 1024.94 2035.96 1025.98 1943.4C1026.28 1916.52 1030.77 1882.6 1031.73 1854.77C1027.76 1843.57 1024.19 1796.7 1034.74 1790.08C1039.01 1794.81 1037.8 1794.81 1039.19 1802.05L1040.52 1790.21C1042.04 1781.57 1043.43 1772.92 1044.69 1764.25L1041.71 1764.08C1039.45 1772.25 1037.94 1778.34 1036.38 1786.66C1025.74 1788.99 1005.24 1774.63 995.232 1768.72Z"/><path fill="#A6B05B" transform="translate(-917 -819)" d="M3074.32 1631.55L3075.19 1628.72C3087.87 1667.8 3102.54 1706.09 3112.37 1745.89C3114.55 1754.7 3120.14 1784.25 3126.03 1787.88L3124.75 1789.62C3129.62 1810.58 3141 1995.74 3135.54 2007.33C3133.1 1992.06 3132.24 1980.18 3131.22 1964.69C3128.11 1975.55 3132.38 2000.14 3130.49 2012.2C3126.01 2040.67 3131.23 2079.71 3126.51 2106.69C3121.08 2137.71 3113.78 2200.98 3101.87 2228.38C3098.13 2228.51 3099.81 2228.54 3096.84 2228.38C3093.8 2238.72 3077.95 2298.98 3072.17 2302.46L3070.59 2300.69C3066.21 2308.16 3045.07 2364.2 3039.21 2377.73C3018.17 2425.25 2993.47 2471.07 2965.33 2514.77C2813.86 2752.09 2573.57 2918.78 2298.23 2977.53C2026.44 3036.16 1742.49 2984.87 1508.38 2834.86C1338.3 2726.16 1202.85 2571.1 1117.98 2387.96C1100.78 2351.05 1077.7 2296.13 1069.05 2256.32C1038.19 2168.43 1024.94 2035.96 1025.98 1943.4C1026.28 1916.52 1030.77 1882.6 1031.73 1854.77C1027.76 1843.57 1024.19 1796.7 1034.74 1790.08C1039.01 1794.81 1037.8 1794.81 1039.19 1802.05L1040.52 1790.21C1056.85 1818.96 1355.91 1924.58 1398.41 1937.9L1397.72 1946.19L1399.84 1959.24L1400.59 1939.7L1402.17 1938.31C1422.27 1946.1 1453.97 1955.06 1475.61 1958.05L1476.16 1959.47C1588.17 1985.68 1729.53 2014.03 1843.92 2021.74C1844.96 2020.65 1845.99 2019.56 1847.03 2018.47L1848.65 2025.54L1850.36 2022.25C1856.44 2020.34 1910.47 2026.67 1927.18 2026L1928.27 2027.99C1965.71 2027.42 2012.82 2030.58 2051.63 2030.28C2073.79 2030.1 2170.58 2027.22 2183.66 2030.18L2184.74 2027.97L2188.8 2028.21C2206.79 2028.5 2243.36 2024.56 2262.7 2022.98L2263.31 2021.65C2271.25 2025.58 2353.91 2015.31 2370.53 2013.43C2458.78 2003.44 2546.57 1985.55 2633.38 1967.05C2653.18 1963.68 2688.81 1956.31 2706.97 1949.15L2709.33 1950.85L2710.25 1966.62C2713.18 1951.61 2712.43 1895.82 2712.4 1878.89C2716.2 1893.52 2713.94 1933.1 2712.79 1948.46C2751.92 1933.53 2795.66 1922.72 2836.12 1908.9C2926.01 1878.18 3014.14 1841.56 3100.08 1801C3108.64 1796.96 3110.7 1796.27 3113.4 1787.49C3102.08 1721.87 3089.99 1692.98 3074.32 1631.55Z"/><path fill="#B79464" transform="translate(-917 -819)" d="M1476.16 1959.47C1588.17 1985.68 1729.53 2014.03 1843.92 2021.74C1844.96 2020.65 1845.99 2019.56 1847.03 2018.47L1848.65 2025.54L1850.36 2022.25C1856.44 2020.34 1910.47 2026.67 1927.18 2026L1928.27 2027.99C1965.71 2027.42 2012.82 2030.58 2051.63 2030.28C2073.79 2030.1 2170.58 2027.22 2183.66 2030.18L2184.74 2027.97L2188.8 2028.21C2206.79 2028.5 2243.36 2024.56 2262.7 2022.98L2263.31 2021.65C2271.25 2025.58 2353.91 2015.31 2370.53 2013.43C2458.78 2003.44 2546.57 1985.55 2633.38 1967.05C2629.78 2006.66 2625.32 2044.6 2616.29 2083.35C2614.47 2091.16 2611.43 2101.78 2610.52 2109.34C2601.36 2137.72 2593.25 2161.57 2582.75 2189.43L2581.18 2192.02C2570.51 2209.79 2561.5 2232.91 2549.76 2252.17C2507.01 2322.31 2458.88 2365.61 2394.62 2413.17L2386.83 2417.92L2387.16 2420.79C2410.4 2430.78 2440.03 2440.75 2464.22 2449.53C2497.98 2463.92 2544.01 2481.36 2558.36 2517.99C2573.1 2555.64 2562.96 2601.37 2547.24 2636.62C2504.13 2733.27 2439.35 2745.19 2348.67 2700.38C2279.52 2666.21 2227.95 2633.31 2167.99 2585.27C2149.91 2569.35 2135.5 2555.34 2118.49 2538.32C2116.21 2534.43 2094.37 2506.68 2089.37 2499.68C1839.6 2504.46 1640.65 2432.27 1526.82 2193.95C1517.45 2170 1509.47 2146.05 1501.21 2121.71C1500.83 2116.16 1496.33 2099.76 1494.77 2093.19C1484.11 2048.4 1479.17 2005.44 1476.16 1959.47Z"/><path fill="#3C230D" transform="translate(-917 -819)" d="M1848.65 2025.54L1850.36 2022.25C1856.44 2020.34 1910.47 2026.67 1927.18 2026L1928.27 2027.99C1965.71 2027.42 2012.82 2030.58 2051.63 2030.28C2073.79 2030.1 2170.58 2027.22 2183.66 2030.18L2184.74 2027.97L2188.8 2028.21C2206.79 2028.5 2243.36 2024.56 2262.7 2022.98C2240.12 2156.79 2146.31 2229.63 2011.23 2208.09C1911.05 2192.12 1867.55 2117.32 1848.65 2025.54Z"/><path fill="#A6B05B" transform="translate(-917 -819)" d="M1928.27 2027.99C1965.71 2027.42 2012.82 2030.58 2051.63 2030.28C2073.79 2030.1 2170.58 2027.22 2183.66 2030.18C2179.82 2044.19 2166.24 2072.29 2164.93 2078.61C2147.44 2101.79 2131.67 2122.14 2102.4 2129.46C2002.56 2154.42 1954.83 2118.84 1928.27 2027.99Z"/><path fill="#49301A" transform="translate(-917 -819)" d="M2184.74 2027.97L2188.8 2028.21C2191.67 2036.32 2189.64 2048.62 2182.88 2054.24C2175.49 2060.39 2171.59 2070.65 2167.91 2079.38C2165.3 2079.15 2166.18 2079.68 2164.93 2078.61C2166.24 2072.29 2179.82 2044.19 2183.66 2030.18L2184.74 2027.97Z"/><path fill="#3C230D" transform="translate(-917 -819)" d="M3113.4 1787.49C3115.48 1801.72 3119.42 1824.07 3120.06 1837.82C3120.03 1871.23 3103.87 1916.8 3093.87 1949.81C3036.77 2140.3 2932.66 2313.37 2791.13 2453.08C2741.92 2502.25 2696.99 2532.68 2648.28 2575.48C2645.83 2576.43 2643.95 2577.39 2641.43 2577.84C2632.94 2650.49 2603.9 2719.36 2545.3 2765.28C2456.23 2835.09 2371.11 2793.07 2282.76 2752.58C2211.98 2714.25 2099.56 2640.56 2051.31 2575.76C2037.34 2575.79 2027.76 2575.8 2013.93 2574.25C1998.15 2575.01 1947.32 2570.29 1932.31 2566.59C1920.2 2565.99 1908.87 2563.89 1897.02 2561.74C1716.03 2528.9 1545.38 2415.93 1467.56 2245.76C1460.62 2230.58 1453.94 2215 1447.06 2199.63L1442.72 2184.24C1427.48 2149.11 1408.19 2061.05 1405.83 2022.71C1402.52 2006.47 1399.99 1975.61 1399.84 1959.24L1400.59 1939.7L1402.17 1938.31C1422.27 1946.1 1453.97 1955.06 1475.61 1958.05L1476.16 1959.47C1479.17 2005.44 1484.11 2048.4 1494.77 2093.19C1496.33 2099.76 1500.83 2116.16 1501.21 2121.71C1509.47 2146.05 1517.45 2170 1526.82 2193.95C1640.65 2432.27 1839.6 2504.46 2089.37 2499.68C2094.37 2506.68 2116.21 2534.43 2118.49 2538.32C2135.5 2555.34 2149.91 2569.35 2167.99 2585.27C2227.95 2633.31 2279.52 2666.21 2348.67 2700.38C2439.35 2745.19 2504.13 2733.27 2547.24 2636.62C2562.96 2601.37 2573.1 2555.64 2558.36 2517.99C2544.01 2481.36 2497.98 2463.92 2464.22 2449.53C2440.03 2440.75 2410.4 2430.78 2387.16 2420.79L2386.83 2417.92L2394.62 2413.17C2458.88 2365.61 2507.01 2322.31 2549.76 2252.17C2561.5 2232.91 2570.51 2209.79 2581.18 2192.02L2582.75 2189.43C2593.25 2161.57 2601.36 2137.72 2610.52 2109.34C2611.43 2101.78 2614.47 2091.16 2616.29 2083.35C2625.32 2044.6 2629.78 2006.66 2633.38 1967.05C2653.18 1963.68 2688.81 1956.31 2706.97 1949.15L2709.33 1950.85L2710.25 1966.62C2713.18 1951.61 2712.43 1895.82 2712.4 1878.89C2716.2 1893.52 2713.94 1933.1 2712.79 1948.46C2751.92 1933.53 2795.66 1922.72 2836.12 1908.9C2926.01 1878.18 3014.14 1841.56 3100.08 1801C3108.64 1796.96 3110.7 1796.27 3113.4 1787.49Z"/><path fill="#A6B05B" transform="translate(-917 -819)" d="M3113.4 1787.49C3115.48 1801.72 3119.42 1824.07 3120.06 1837.82C3120.03 1871.23 3103.87 1916.8 3093.87 1949.81C3036.77 2140.3 2932.66 2313.37 2791.13 2453.08C2741.92 2502.25 2696.99 2532.68 2648.28 2575.48C2645.83 2576.43 2643.95 2577.39 2641.43 2577.84C2644.09 2536.56 2641.21 2517.05 2627.18 2478.67C2620.55 2467.91 2613.69 2458 2606.54 2447.6C2677.97 2449.51 2741.06 2430.89 2790.8 2376.7C2799.42 2367.32 2809.12 2350.87 2816.65 2339.93C2834.7 2299.05 2840.66 2280.47 2846.99 2236.22C2849.7 2208.78 2856.37 2151.29 2827.59 2135.1C2812.02 2126.33 2786 2137.04 2770.65 2143.04C2738.36 2155.67 2705.35 2165.29 2672.11 2175.24C2679.57 2153.23 2685.77 2130.81 2690.66 2108.1C2696.81 2081.86 2705.03 2039.15 2706.18 2013.08C2709.11 1998.18 2709.79 1981.76 2710.25 1966.62C2713.18 1951.61 2712.43 1895.82 2712.4 1878.89C2716.2 1893.52 2713.94 1933.1 2712.79 1948.46C2751.92 1933.53 2795.66 1922.72 2836.12 1908.9C2926.01 1878.18 3014.14 1841.56 3100.08 1801C3108.64 1796.96 3110.7 1796.27 3113.4 1787.49Z"/><path fill="#B6BE72" transform="translate(-917 -819)" d="M2846.99 2236.22C2856.06 2250.78 2847.83 2292.02 2839.43 2307.54C2833.27 2318.91 2827.03 2330.89 2821.2 2342.53L2818.84 2343.07L2816.65 2339.93C2834.7 2299.05 2840.66 2280.47 2846.99 2236.22Z"/><path fill="#B6BE72" transform="translate(-917 -819)" d="M2627.18 2478.67L2629.76 2478.23C2642.84 2505.61 2653.32 2521.88 2650.51 2553.56C2649.72 2562.48 2652.48 2565.46 2648.28 2575.48C2645.83 2576.43 2643.95 2577.39 2641.43 2577.84C2644.09 2536.56 2641.21 2517.05 2627.18 2478.67Z"/><path fill="#49301A" transform="translate(-917 -819)" d="M1405.83 2022.71C1406.14 2016.82 1404.92 2018.41 1407.69 2014.97L1407.27 2008.93C1408.34 2014.98 1408.12 2017.62 1412.79 2022.13C1416.2 2045.26 1444.58 2175.14 1442.72 2184.24C1427.48 2149.11 1408.19 2061.05 1405.83 2022.71Z"/><path fill="#49301A" transform="translate(-917 -819)" d="M2394.62 2413.17L2396.05 2416.06L2392.56 2418.96C2397.13 2421.67 2413.53 2423.05 2421.99 2425.34C2437.87 2429.46 2453.23 2435.37 2467.78 2442.95L2468.23 2446.09L2464.22 2449.53C2440.03 2440.75 2410.4 2430.78 2387.16 2420.79L2386.83 2417.92L2394.62 2413.17Z"/><path fill="#49301A" transform="translate(-917 -819)" d="M1932.31 2566.59L1935.21 2563.7L1938.92 2564.11L1948.01 2565.07C1974.45 2568 2002.87 2563.47 2028.87 2567.12L2021.25 2568.68L2020.05 2570.59L2045.77 2571.51L2046.94 2572.99C2038 2573.18 2022.27 2573.04 2013.93 2574.25C1998.15 2575.01 1947.32 2570.29 1932.31 2566.59Z"/><path fill="#49301A" transform="translate(-917 -819)" d="M2610.52 2109.34C2615.45 2127.9 2604.47 2164.62 2593.49 2180.37L2592.43 2180.4C2590.2 2183.67 2587.93 2186.9 2585.61 2190.1L2582.75 2189.43C2593.25 2161.57 2601.36 2137.72 2610.52 2109.34Z"/><path fill="#49301A" transform="translate(-917 -819)" d="M2690.66 2108.1C2679.52 2092.49 2697.89 2048.6 2700.54 2029.54C2702.27 2017.08 2703.29 2010.87 2703.85 1997.39C2706.29 2001.74 2705.83 2007.55 2706.18 2013.08C2705.03 2039.15 2696.81 2081.86 2690.66 2108.1Z"/><path fill="#49301A" transform="translate(-917 -819)" d="M1501.21 2121.71C1509.47 2146.05 1517.45 2170 1526.82 2193.95L1524.98 2194.56C1521.93 2192.67 1511.45 2171.96 1508.94 2167.52C1503.36 2157.69 1497.29 2132.17 1501.21 2121.71Z"/><path fill="#49301A" transform="translate(-917 -819)" d="M2118.49 2538.32C2135.5 2555.34 2149.91 2569.35 2167.99 2585.27C2161.14 2584.94 2164.35 2584.17 2158.23 2588.31L2159.09 2588.54L2157.17 2588.77C2148.37 2581.64 2120.41 2548.28 2118.49 2538.32Z"/><path fill="#A6B05B" transform="translate(-917 -819)" d="M2647.99 2231.12C2646.99 2227.52 2646.9 2229.42 2649.04 2225.52C2654.58 2223.31 2654.36 2223.86 2659.02 2220.5L2653.39 2216.73C2667.53 2207.51 2712.06 2198.42 2730.12 2192.51C2748.75 2186.96 2766.03 2177.54 2784.3 2171.17C2791.83 2168.55 2799.41 2171.79 2806.63 2172.88L2803.99 2175.16L2807.39 2178.71C2808.5 2188.69 2808.46 2192.72 2807.96 2202.78C2809.52 2311.64 2741.03 2403.89 2627.04 2404.9C2618.46 2404.89 2609.89 2404.73 2601.32 2404.43C2603.58 2401 2616.22 2381.24 2618.08 2379.09C2662.65 2312.95 2687.79 2291.05 2749.33 2243.84C2684.01 2265.22 2618.25 2320.92 2581.31 2378.25C2579.47 2355.95 2576.97 2339.59 2582.11 2317.45C2589.47 2276.83 2615.62 2253.02 2647.99 2231.12Z"/><path fill="#D0D390" transform="translate(-917 -819)" d="M2647.99 2231.12C2646.99 2227.52 2646.9 2229.42 2649.04 2225.52C2654.58 2223.31 2654.36 2223.86 2659.02 2220.5L2653.39 2216.73C2667.53 2207.51 2712.06 2198.42 2730.12 2192.51C2748.75 2186.96 2766.03 2177.54 2784.3 2171.17C2791.83 2168.55 2799.41 2171.79 2806.63 2172.88L2803.99 2175.16L2807.39 2178.71C2806.31 2185.13 2806.94 2190.3 2800.62 2193.59C2732.48 2229.08 2644.9 2227.6 2600.01 2300.06C2594.9 2308.3 2588.56 2336.35 2584.6 2338.64C2582.11 2329.53 2582.34 2327.1 2582.11 2317.45C2589.47 2276.83 2615.62 2253.02 2647.99 2231.12Z"/><path fill="#49301A" transform="translate(-917 -819)" d="M2647.99 2231.12C2646.99 2227.52 2646.9 2229.42 2649.04 2225.52C2654.58 2223.31 2654.36 2223.86 2659.02 2220.5L2653.39 2216.73C2667.53 2207.51 2712.06 2198.42 2730.12 2192.51C2748.75 2186.96 2766.03 2177.54 2784.3 2171.17C2791.83 2168.55 2799.41 2171.79 2806.63 2172.88L2803.99 2175.16C2751.61 2198.33 2701.32 2206.42 2647.99 2231.12Z"/><path fill="#898E40" transform="translate(-917 -819)" d="M2618.08 2379.09C2646.47 2383.25 2686.73 2374.11 2711.46 2358.38C2747.5 2335.45 2779.73 2295.35 2795.27 2255.55C2799.59 2244.49 2805.02 2215.53 2807.96 2202.78C2809.52 2311.64 2741.03 2403.89 2627.04 2404.9C2618.46 2404.89 2609.89 2404.73 2601.32 2404.43C2603.58 2401 2616.22 2381.24 2618.08 2379.09Z"/><path fill="#898E40" transform="translate(-917 -819)" d="M3074.32 1631.55L3075.19 1628.72C3087.87 1667.8 3102.54 1706.09 3112.37 1745.89C3114.55 1754.7 3120.14 1784.25 3126.03 1787.88L3124.75 1789.62C3129.62 1810.58 3141 1995.74 3135.54 2007.33C3133.1 1992.06 3132.24 1980.18 3131.22 1964.69C3128.11 1975.55 3132.38 2000.14 3130.49 2012.2C3126.01 2040.67 3131.23 2079.71 3126.51 2106.69C3121.08 2137.71 3113.78 2200.98 3101.87 2228.38C3098.13 2228.51 3099.81 2228.54 3096.84 2228.38C3093.8 2238.72 3077.95 2298.98 3072.17 2302.46L3070.59 2300.69C3066.21 2308.16 3045.07 2364.2 3039.21 2377.73C3018.17 2425.25 2993.47 2471.07 2965.33 2514.77C2813.86 2752.09 2573.57 2918.78 2298.23 2977.53C2026.44 3036.16 1742.49 2984.87 1508.38 2834.86C1338.3 2726.16 1202.85 2571.1 1117.98 2387.96C1100.78 2351.05 1077.7 2296.13 1069.05 2256.32L1071.4 2259.62C1084.85 2278.66 1098.49 2308.17 1111.62 2326.7C1133.56 2357.68 1158.96 2392.18 1182.76 2421.52C1335.16 2608.13 1549 2734.41 1786 2777.78C1926.9 2804.69 2071.82 2802.34 2211.77 2770.88C2224.46 2768.02 2272.1 2757.2 2282.76 2752.58C2371.11 2793.07 2456.23 2835.09 2545.3 2765.28C2603.9 2719.36 2632.94 2650.49 2641.43 2577.84C2643.95 2577.39 2645.83 2576.43 2648.28 2575.48C2696.99 2532.68 2741.92 2502.25 2791.13 2453.08C2932.66 2313.37 3036.77 2140.3 3093.87 1949.81C3103.87 1916.8 3120.03 1871.23 3120.06 1837.82C3119.42 1824.07 3115.48 1801.72 3113.4 1787.49C3102.08 1721.87 3089.99 1692.98 3074.32 1631.55Z"/><path fill="#49301A" transform="translate(-917 -819)" d="M3074.32 1631.55L3075.19 1628.72C3087.87 1667.8 3102.54 1706.09 3112.37 1745.89C3114.55 1754.7 3120.14 1784.25 3126.03 1787.88L3124.75 1789.62C3129.62 1810.58 3141 1995.74 3135.54 2007.33C3133.1 1992.06 3132.24 1980.18 3131.22 1964.69C3128.11 1975.55 3132.38 2000.14 3130.49 2012.2C3126.01 2040.67 3131.23 2079.71 3126.51 2106.69C3121.08 2137.71 3113.78 2200.98 3101.87 2228.38C3098.13 2228.51 3099.81 2228.54 3096.84 2228.38C3093.8 2238.72 3077.95 2298.98 3072.17 2302.46L3070.59 2300.69C3112.18 2174.65 3131.74 2059.82 3126.99 1926.28C3126.02 1899.11 3124.81 1864.48 3120.06 1837.82C3119.42 1824.07 3115.48 1801.72 3113.4 1787.49C3102.08 1721.87 3089.99 1692.98 3074.32 1631.55Z"/><path fill="#B6BE72" transform="translate(-917 -819)" d="M1447.06 2199.63C1445.12 2200.26 1446.42 2200.02 1443.12 2199.27C1438.11 2187.45 1437.37 2179.06 1433.06 2169.05C1422.65 2144.87 1417.15 2114.56 1409.23 2088.26L1409.1 2092.67C1398.06 2056.33 1404.49 2040.21 1396.63 2003.72L1396.58 2019.9C1393.38 2006.46 1385.96 1951.1 1393.92 1942.93L1397.72 1946.19L1399.84 1959.24C1399.99 1975.61 1402.52 2006.47 1405.83 2022.71C1408.19 2061.05 1427.48 2149.11 1442.72 2184.24L1447.06 2199.63Z"/><path fill="#49301A" transform="translate(-917 -819)" d="M1031.73 1854.77C1027.76 1843.57 1024.19 1796.7 1034.74 1790.08C1039.01 1794.81 1037.8 1794.81 1039.19 1802.05L1031.73 1854.77Z"/><path fill="#C4A67B" transform="translate(-917 -819)" d="M1682.11 1411.3C1923.81 1231.64 2340.07 1256.32 2524.46 1507.04C2615.87 1631.33 2647.38 1815.18 2633.38 1967.05C2546.57 1985.55 2458.78 2003.44 2370.53 2013.43C2353.91 2015.31 2271.25 2025.58 2263.31 2021.65L2262.7 2022.98C2243.36 2024.56 2206.79 2028.5 2188.8 2028.21L2184.74 2027.97L2183.66 2030.18C2170.58 2027.22 2073.79 2030.1 2051.63 2030.28C2012.82 2030.58 1965.71 2027.42 1928.27 2027.99L1927.18 2026C1910.47 2026.67 1856.44 2020.34 1850.36 2022.25L1848.65 2025.54L1847.03 2018.47C1845.99 2019.56 1844.96 2020.65 1843.92 2021.74C1729.53 2014.03 1588.17 1985.68 1476.16 1959.47L1475.61 1958.05C1473.18 1849.9 1477.52 1780.98 1505.51 1675.9C1520.81 1632.1 1530.15 1607.83 1550.91 1566.03C1573.68 1527.55 1590.3 1504.05 1618.57 1469.83C1640.67 1446.83 1657.63 1431.12 1682.11 1411.3Z"/><path fill="#B6BE72" transform="translate(-917 -819)" d="M1927.18 2026C1908.14 1940.47 1903.71 1790.77 1948.46 1715.08C1999.33 1629.04 2154.47 1643.83 2179.19 1751.6L2184.9 1767.4C2198.68 1831.43 2201.37 1884.31 2197.13 1949.42C2195.5 1966.28 2193.58 1983.11 2191.38 1999.9C2188.79 2009.43 2186.85 2018.35 2184.74 2027.97L2183.66 2030.18C2170.58 2027.22 2073.79 2030.1 2051.63 2030.28C2012.82 2030.58 1965.71 2027.42 1928.27 2027.99L1927.18 2026Z"/><path fill="#D0D390" transform="translate(-917 -819)" d="M2179.19 1751.6L2184.9 1767.4C2198.68 1831.43 2201.37 1884.31 2197.13 1949.42L2194.77 1948.86C2188.94 1915.86 2198.32 1875 2188.85 1826.4L2188.65 1829.78C2185.75 1819.12 2176.6 1758.18 2179.19 1751.6Z"/><path fill="#4E3520" transform="translate(-917 -819)" d="M1961.7 1605.06C1965.39 1603.21 1969.14 1601.49 1972.95 1599.91C2021.25 1580.12 2095.91 1583.46 2144.33 1603.21C2169.08 1612.72 2191.16 1628.07 2208.68 1647.96C2212.55 1653.05 2218.19 1660 2221.53 1665.19C2277.76 1738.46 2280.2 1899.25 2268.27 1990.51C2266.88 2000.93 2265.23 2011.31 2263.31 2021.65L2262.7 2022.98C2243.36 2024.56 2206.79 2028.5 2188.8 2028.21L2184.74 2027.97C2186.85 2018.35 2188.79 2009.43 2191.38 1999.9C2193.58 1983.11 2195.5 1966.28 2197.13 1949.42C2201.37 1884.31 2198.68 1831.43 2184.9 1767.4L2179.19 1751.6C2154.47 1643.83 1999.33 1629.04 1948.46 1715.08C1903.71 1790.77 1908.14 1940.47 1927.18 2026C1910.47 2026.67 1856.44 2020.34 1850.36 2022.25L1848.65 2025.54L1847.03 2018.47C1829 1896.41 1823.26 1658.26 1961.7 1605.06Z"/><path fill="#49301A" transform="translate(-917 -819)" d="M2184.9 1767.4L2187.5 1765.1C2193.01 1774.97 2197.83 1816.76 2199.14 1829.31L2203.14 1828.39C2210.16 1875.97 2207.45 1953.87 2194.43 1999.9L2191.38 1999.9C2193.58 1983.11 2195.5 1966.28 2197.13 1949.42C2201.37 1884.31 2198.68 1831.43 2184.9 1767.4Z"/><path fill="#3C230D" transform="translate(-917 -819)" d="M1961.7 1605.06C1965.39 1603.21 1969.14 1601.49 1972.95 1599.91C2021.25 1580.12 2095.91 1583.46 2144.33 1603.21C2126.86 1607.23 2069.22 1580.75 2045.03 1593.5C2057.79 1595.99 2056.76 1590.31 2066.47 1595.99C2052.36 1601.97 2035.14 1591.68 2019.01 1593.39L2019.25 1595.75L2028.64 1597.06C2027.05 1598.23 1962.27 1605.2 1961.7 1605.06Z"/><path fill="#3C230D" transform="translate(-917 -819)" d="M2208.68 1647.96C2212.55 1653.05 2218.19 1660 2221.53 1665.19C2218.15 1665.06 2218.01 1664.75 2215.07 1663.23L2211.8 1666.74C2206.41 1663.77 2202.27 1658.15 2198.08 1653.41C2198.99 1647.66 2197.69 1656.93 2208.68 1647.96Z"/><path fill="#D0D390" transform="translate(-917 -819)" d="M995.232 1768.72C1046.57 1486.22 1208.25 1235.77 1444.58 1072.69C1688.38 905.362 1988.59 841.549 2279.38 895.244C2567.85 946.643 2823.5 1111.96 2988.73 1353.94C3059.72 1457.78 3111.65 1573.43 3142.1 1695.48C3148.49 1721.91 3151.77 1745.24 3156.7 1771.56L3126.03 1787.88C3120.14 1784.25 3114.55 1754.7 3112.37 1745.89C3102.54 1706.09 3087.87 1667.8 3075.19 1628.72L3074.32 1631.55C3069.2 1620.56 3066.33 1609.56 3060.64 1597.79L3058.88 1598.52C3052.32 1591.03 3046.81 1580.54 3042.01 1571.77C3012.88 1518.61 2975.89 1471.43 2935.68 1426.12C2733.23 1199.98 2449.03 1063.81 2145.93 1047.73C1923.83 1034.69 1722.13 1068.23 1520.83 1166.23C1448.18 1201.6 1388.18 1235.49 1323.93 1285.63C1296.06 1307.38 1270.54 1327.66 1245.03 1352.48C1231.27 1365.87 1216.05 1386.35 1202.99 1397.96L1198.67 1394.14C1149.33 1457.38 1092.09 1590.75 1068.63 1668.9C1063.28 1686.7 1048.63 1755.17 1044.69 1764.25L1041.71 1764.08C1039.45 1772.25 1037.94 1778.34 1036.38 1786.66C1025.74 1788.99 1005.24 1774.63 995.232 1768.72Z"/><path fill="#4E3520" transform="translate(-917 -819)" d="M995.232 1768.72C1046.57 1486.22 1208.25 1235.77 1444.58 1072.69C1688.38 905.362 1988.59 841.549 2279.38 895.244C2567.85 946.643 2823.5 1111.96 2988.73 1353.94C3059.72 1457.78 3111.65 1573.43 3142.1 1695.48C3148.49 1721.91 3151.77 1745.24 3156.7 1771.56L3126.03 1787.88C3120.14 1784.25 3114.55 1754.7 3112.37 1745.89C3102.54 1706.09 3087.87 1667.8 3075.19 1628.72L3074.32 1631.55C3069.2 1620.56 3066.33 1609.56 3060.64 1597.79C3035.25 1520.25 2936.89 1348.33 2877.27 1293.18C2859.08 1269.37 2807.36 1215.52 2783.4 1196.91C2772.89 1185.08 2750.18 1167.49 2737.61 1156.97C2671.78 1101.86 2605.66 1066.94 2530.63 1027.28C2522.14 1024.57 2502.2 1015.17 2491.5 1011.08C2483.44 1006.38 2453.62 995.236 2443.48 991.196C2263.58 932.749 2166.77 924.13 1978.78 931.692C1896.23 941.501 1789.86 959.453 1712.38 991.331C1700.72 995.365 1649.25 1016.54 1643.85 1017.74C1603.99 1038.33 1567.75 1054.81 1528.92 1078.11C1420.09 1143.32 1324.39 1228.3 1246.77 1328.66C1232.3 1347.07 1211.01 1374.42 1198.67 1394.14C1149.33 1457.38 1092.09 1590.75 1068.63 1668.9C1063.28 1686.7 1048.63 1755.17 1044.69 1764.25L1041.71 1764.08C1039.45 1772.25 1037.94 1778.34 1036.38 1786.66C1025.74 1788.99 1005.24 1774.63 995.232 1768.72Z"/><path fill="#49301A" transform="translate(-917 -819)" d="M1643.85 1017.74L1643.16 1015.33C1644.31 1014.75 1646 1013.99 1646.91 1013.11C1647.47 1012.57 1647.79 1011.82 1648.24 1011.19C1669.02 982.009 1852.05 945.54 1893.97 938.467C1920.85 933.934 1948.2 932.336 1974.93 927.688L1976.56 927.388L1978.78 931.692C1896.23 941.501 1789.86 959.453 1712.38 991.331C1700.72 995.365 1649.25 1016.54 1643.85 1017.74Z"/><path fill="#49301A" transform="translate(-917 -819)" d="M2443.48 991.196C2473.7 980.655 2511.28 1014.54 2534.03 1026.01L2530.63 1027.28C2522.14 1024.57 2502.2 1015.17 2491.5 1011.08C2483.44 1006.38 2453.62 995.236 2443.48 991.196Z"/><path fill="#B6BE72" transform="translate(-917 -819)" d="M1978.78 931.692C2166.77 924.13 2263.58 932.749 2443.48 991.196C2453.62 995.236 2483.44 1006.38 2491.5 1011.08L2489.3 1013.29C2455.2 1003.45 2411.03 980.897 2375.88 973.422C2355.67 969.125 2333.34 959.978 2315.31 957.241L2313.18 961.83C2281.1 956.806 2251.61 950.377 2218.18 945.596L2218.36 944.109L2221.93 942.099L2202.3 940.982L2204.16 940.817C2071.07 920.799 1916.54 936.835 1786.66 971.227C1767.85 976.205 1748.38 983.952 1729.9 989.991C1721.24 992.818 1718.86 994.574 1712.38 991.331C1789.86 959.453 1896.23 941.501 1978.78 931.692Z"/><path fill="#B6BE72" transform="translate(-917 -819)" d="M2783.4 1196.91C2807.36 1215.52 2859.08 1269.37 2877.27 1293.18C2863.54 1289.49 2795.11 1216.53 2782.92 1199.69L2783.4 1196.91Z"/><path fill="#49301A" transform="translate(-917 -819)" d="M1953.15 1227.06C2031.8 1219.49 2095.16 1218.15 2174.38 1228.93C2529.68 1286.43 2702.61 1530.86 2712.4 1878.89C2712.43 1895.82 2713.18 1951.61 2710.25 1966.62L2709.33 1950.85L2706.97 1949.15C2688.81 1956.31 2653.18 1963.68 2633.38 1967.05C2647.38 1815.18 2615.87 1631.33 2524.46 1507.04C2340.07 1256.32 1923.81 1231.64 1682.11 1411.3C1657.63 1431.12 1640.67 1446.83 1618.57 1469.83C1590.3 1504.05 1573.68 1527.55 1550.91 1566.03C1530.15 1607.83 1520.81 1632.1 1505.51 1675.9C1477.52 1780.98 1473.18 1849.9 1475.61 1958.05C1453.97 1955.06 1422.27 1946.1 1402.17 1938.31L1400.59 1939.7L1399.84 1959.24L1397.72 1946.19L1398.41 1937.9C1398.19 1887.16 1399.5 1804.04 1410.81 1754.48C1418.46 1699.06 1436.74 1632.73 1459.06 1581.61C1461.69 1572.23 1478.42 1539.49 1483.1 1530.95C1529.69 1446.06 1588.41 1384.39 1667.42 1329.83L1689.82 1314.89C1704.88 1308.69 1735.15 1289.91 1753.53 1281.71C1821.96 1251.19 1879.84 1238.16 1953.15 1227.06Z"/><path fill="#3C230D" transform="translate(-917 -819)" d="M1618.57 1469.83C1611.99 1451.39 1654.65 1417.63 1669.72 1408.84C1674.15 1406.25 1677.79 1409.36 1682.11 1411.3C1657.63 1431.12 1640.67 1446.83 1618.57 1469.83Z"/><path fill="#3C230D" transform="translate(-917 -819)" d="M1505.51 1675.9C1494.88 1643.34 1531.37 1593.56 1547.02 1565.62L1550.91 1566.03C1530.15 1607.83 1520.81 1632.1 1505.51 1675.9Z"/><path fill="#D0D390" transform="translate(-917 -819)" d="M1953.15 1227.06L1945.4 1225.13L1945.65 1223.54C1998.08 1219.61 2048.48 1206.77 2102.45 1214.63C2129.3 1218.54 2154.77 1222.89 2181.85 1225.48L2183.14 1226.76L2174.38 1228.93C2095.16 1218.15 2031.8 1219.49 1953.15 1227.06Z"/><path fill="#D0D390" transform="translate(-917 -819)" d="M1667.42 1329.83C1666.41 1320.15 1665.2 1324.23 1670.08 1316.87C1678.46 1313.25 1680.9 1314.87 1689.82 1314.89L1667.42 1329.83Z"/><path fill="#D0D390" transform="translate(-917 -819)" d="M1426.96 1290.29C1539.21 1278.63 1540.97 1432.82 1417.03 1465.21C1295.87 1480.07 1310.6 1314.56 1426.96 1290.29Z"/><path fill="#D0D390" transform="translate(-917 -819)" d="M1564 1186.11C1625.11 1182.98 1620.43 1242.86 1579.44 1270.92C1575.09 1272.04 1571.84 1272.48 1567.36 1272.29C1559.79 1271.99 1552.68 1268.61 1547.67 1262.93C1536.4 1250.09 1536.55 1231.27 1536.95 1215.45C1546.1 1200.03 1547.52 1194.29 1564 1186.11Z"/></g></svg>