<?xml version="1.0" encoding="utf-8" ?><svg xmlns="http://www.w3.org/2000/svg" xmlns:xlink="http://www.w3.org/1999/xlink" width="4096" height="1002" viewBox="0 0 4096 1002"><path fill="#382107" d="M36.9018 379.72C40.0892 367.385 41.5532 352.844 44.7736 339.868C53.8425 302.104 68.5226 264.964 87.5451 231.134C214.148 5.97984 600.518 7.9691 721.445 236.105C732.24 256.471 743.54 281.448 749.405 303.777C751.853 310.344 754.574 322.765 760.067 326.222C761.953 325.947 763.379 325.704 764.382 323.742C771.984 308.866 778.746 300.979 790.948 289.502C819.957 266.681 850.341 260.769 886.349 262.128C941.659 264.217 1000.73 282.86 1008.15 345.882C1008.34 347.506 1010.19 358.217 1010.76 359.64C1012.66 379.863 1011.7 405.199 1011.74 425.949L1012.25 533.486C1012.3 548.354 1008.91 603.409 1022.01 610.376C1031.94 609.409 1031.06 596.713 1031.08 589.658C1031.12 574.752 1031.04 559.853 1030.96 544.948L1030.83 428.203C1030.77 403.493 1029.46 367.743 1033.16 344.303C1037.89 324.561 1044.63 306.986 1060.6 293.631C1126.84 238.253 1281.05 251.177 1291.88 354.995C1293.31 371.786 1295.65 394.66 1297.58 411.512C1302.92 410.215 1313.37 390.542 1317.27 384.638C1326.91 370.275 1337.45 356.538 1348.83 343.51C1392.12 293.828 1460.64 265.136 1524.83 259.91C1634.89 250.95 1749.29 286.494 1803.94 389.136C1806.48 393.905 1814.7 410.056 1818.81 411.799C1820.5 409.498 1820.14 408.222 1820.07 405.317C1821.81 396.253 1820.44 367.177 1820.67 356.008C1821.43 320.561 1821.72 285.107 1821.52 249.653C1821.48 218.115 1820.88 184.925 1824.39 153.693C1827.03 140.31 1830.19 129.763 1836.75 117.647C1869.88 56.438 1977.01 52.4037 2031.04 82.8396C2054.99 96.319 2072.66 118.689 2080.24 145.105C2080.53 146.657 2081.31 152.103 2081.7 153.258C2088.46 172.999 2080.55 324.337 2086.14 332.998C2092.91 332.785 2130.23 291.848 2139.82 283.503C2194.47 243.415 2248.12 254.807 2297.87 296.387C2306.73 305.928 2315.37 315.675 2323.78 325.62C2326.96 306.679 2326.7 270.524 2326.72 250.952C2326.48 219.455 2326.92 187.957 2328.02 156.478C2334.51 130.268 2338.91 112.344 2360.59 93.8049C2411.27 50.4727 2521.5 54.5129 2565.04 105.509C2603.31 153.09 2588.18 240.089 2591.19 297.822C2591.63 306.11 2590.67 315.339 2591.37 323.627C2591.66 327.409 2591.07 327.264 2593.03 329.91C2597.59 329.634 2601.97 325.192 2605.2 322.014C2645.58 282.214 2676.12 245.212 2739.42 262.446C2761.14 268.467 2781.22 279.323 2798.15 294.202C2811.74 306.189 2822.01 320.832 2830.53 336.756C2834.45 344.092 2838.32 356.799 2845.65 360.026L2846.91 359.468C2856.69 329.937 2875.18 308.616 2903.73 295.314C2987.13 256.452 3103.18 249.742 3190.76 278.197C3226.79 289.901 3254.08 306.311 3279.67 333.478C3289.55 344.645 3293.96 351.899 3301.42 364.885C3306.57 373.857 3313.44 390.252 3320.45 396.979C3325.41 392.553 3328.7 359.349 3330.21 351.067C3331.41 344.17 3333.12 337.371 3335.33 330.727C3384.95 123.045 3589.12 30.0536 3786.93 75.7445C3872.75 95.5686 3951.61 143.841 3998.37 220.114C4018.4 253.096 4040.12 301.375 4047.94 339.759C4049.5 352.415 4053.71 366.619 4054.69 379.419C4058.87 434.382 4060.33 491.643 4050.46 545.932C4048.21 553.701 4046.64 562.885 4044.75 570.966C4030.21 633.313 4004.54 681.79 3964.69 731.767C3986.3 748.958 4009.63 760.19 4017.81 790.099C4024.65 804.138 4024.94 833.808 4022.15 849.029C4020.65 853.981 4019.36 862.71 4018.14 868.225C4007.49 923.594 3949.37 985.494 3888.53 977.103C3834.22 969.614 3768.89 923.724 3726.32 889.691C3710.28 876.863 3696.38 860.737 3681.13 847.24C3663.52 844.493 3642.71 844.013 3624.4 841.645C3576.68 835.474 3538.16 821.269 3496.18 798.436C3440.17 767.745 3394.94 720.583 3366.63 663.336C3357.54 645.225 3343.87 611.853 3338.26 592.915L3337.33 592.987C3333.92 602.394 3335.06 621.625 3335.16 632.524L3336.14 717.962C3336.24 733.882 3336.96 751.132 3334.91 766.865C3325.51 839.215 3237.56 857.451 3177.29 846.457C3160.17 843.335 3143.44 835.786 3128.44 826.16C3087.04 843.425 3062.15 853.677 3015.53 852.531C2961.39 851.201 2909.41 837.073 2868.39 800.315C2859.23 792.108 2850.66 782.926 2842.12 774.069C2836.91 778.618 2828.84 791.418 2824.18 797.162C2773.2 859.998 2680.86 876.156 2624.97 810.072C2613.89 796.965 2604.57 779.179 2590.76 769.006C2587.68 766.737 2580.59 785.919 2578.62 788.609C2567.93 809.13 2562.39 817.203 2542.25 828.72C2500.86 852.388 2449.56 854.41 2404.23 842.589C2370.15 833.703 2349.67 814.143 2332.69 783.995C2299.08 829.297 2240.76 864.465 2182.89 848.913C2132.67 835.416 2113.89 798.219 2083.17 761.978C2081.34 768.513 2079.12 774.933 2076.52 781.204C2064.81 809.805 2049.17 826.086 2020.78 837.833C1983.13 853.41 1922.67 853.366 1885.43 837.213C1854.08 823.61 1840.65 810.642 1828.13 779.952C1827.49 776.129 1825.63 772.141 1824.83 768.272C1820.42 747.032 1820.79 725.52 1821.11 703.974C1821.17 699.622 1822.42 686.794 1817.88 685.193C1811.26 694.79 1806.54 710.06 1799.19 720.976L1798.88 722.127C1795.38 727.353 1791.98 733.289 1788.73 738.73C1788.6 739.072 1788.46 739.414 1788.33 739.756C1713.19 853.292 1552.63 879.241 1433.29 827.483C1387.43 807.597 1363.6 786.484 1333.33 750.706C1325.65 741.633 1315.47 727.928 1311.66 718.204C1308.18 711.569 1299.89 694.029 1294.18 690.67L1293.4 691.178C1292.55 705.549 1294.16 723.085 1293.99 737.821C1293.82 752.657 1292.66 764.361 1290.72 778.962C1290.5 779.197 1290.28 779.433 1290.06 779.668C1266.59 850.191 1170.51 860.976 1110.09 838.498C1100.67 834.994 1090.38 827.505 1080.69 823.608C1063.78 831.558 1047.09 839.519 1029.03 844.745C983.64 857.878 931.443 855.252 887.117 839.452C836.212 821.307 801.255 791.228 778.452 741.94C765.234 713.367 759.923 681.698 756.384 650.533C754.38 632.885 757.1 620.941 750.263 603.827C741.858 626.921 729.075 651.73 716.808 672.948C709.239 685.919 701.27 698.654 692.914 711.133C689.796 715.79 679.107 728.664 679.749 733.681C683.919 738.304 691.892 742.271 697.244 746.299C717.031 761.192 726.935 778.114 734.789 801.098C738.883 822.114 739.926 829.853 736.572 850.592C736.238 858.898 733.533 868.146 730.901 875.663C688.069 998.027 597.748 995.331 500.448 933.154C454.922 904.061 435.727 887.406 399.08 849.328C384.068 846.469 357.722 845.64 340.633 843.163C281.393 834.578 223.425 814.717 175.101 778.807C86.8655 713.239 52.652 632.122 36.1058 527.664C35.6875 512.525 33.0736 495.474 32.3903 479.758C30.8537 444.414 32.7075 414.532 36.9018 379.72ZM3710.79 794.825C3740.42 839.064 3783.16 872.724 3829.52 898.263C3850.37 909.469 3889.23 931.688 3913.01 923.74C3954.59 909.839 3980.64 847.994 3968.88 807.14C3964.69 792.574 3952.1 783.833 3939.39 777.599C3921.19 767.666 3887.27 758.321 3871.3 747.71C3891.3 729.425 3910.48 714.129 3928.41 693.41C3980.45 633.269 4002.1 557.249 4006.29 479.526C4017.11 279.046 3917.88 123.771 3704.75 114.551C3695.01 114.154 3685.26 114.144 3675.52 114.522C3615.03 118.274 3563.95 128.669 3511.62 161.147C3318.68 280.875 3319.02 653.743 3528.18 757.939C3593.12 790.288 3640.18 793.083 3710.79 794.825ZM2301.25 474.889C2280.66 496.524 2257.4 520.343 2237.63 542.513C2249.62 561.755 2259.97 572.806 2274.7 589.929C2282.96 599.543 2291.05 611.314 2299.13 621.31C2303.32 626.378 2318.11 646.493 2325.14 644.187C2326.64 634.481 2326.17 622.291 2326.13 612.305C2326 573.795 2324.91 535.313 2324.83 496.793C2324.8 481.811 2325.03 465.562 2323.93 450.718C2314.71 458.176 2308.84 465.881 2301.25 474.889ZM420.246 629.832C528.711 617.12 532.919 486.56 523.831 402.089C515.044 320.408 472.277 263.898 384.759 272.363C354.098 277.425 329.41 288.591 311.4 314.759C277.448 364.088 274.826 427.466 278.721 485.155C284.719 573.977 321.843 640.736 420.246 629.832ZM2898.31 506.372C2877.57 491.84 2859.07 469.458 2848.81 446.253C2846.68 441.453 2845.01 431.699 2841.83 428.148C2834.43 430.384 2825.05 450.53 2819.91 457.316C2806.84 474.559 2790.57 490.872 2775.59 506.507C2764.77 517.799 2751.05 530.849 2743.5 544.544C2743.75 551.67 2797.4 617.105 2805.07 623.715C2805.27 623.89 2805.51 624.018 2805.73 624.169C2808.92 627.412 2812.12 630.606 2815.46 633.694C2819.34 622.484 2821.52 610.819 2825.3 599.548C2838.98 558.686 2861.71 529.609 2898.31 506.372ZM1555.64 495.321C1548.76 499.778 1546.36 508.926 1544.73 516.563C1540.62 535.933 1538.95 597.315 1549.94 614.503C1551.58 617.058 1553.73 618.222 1556.5 619.213C1564.75 613.132 1566.91 603.559 1568.39 593.908C1571.42 574.104 1573.82 516.123 1562.38 500.127C1560.68 497.756 1558.32 496.368 1555.64 495.321Z"/><path fill="#B79162" d="M376.144 114.451C390.687 113.91 405.244 113.857 419.791 114.293C502.645 117.362 578.563 144.266 637.122 205.585C707.883 279.68 724.143 378.921 720.948 477.63C718.347 558.004 693.507 636.928 639.533 698.138C622.284 717.699 604.128 731.825 585.099 749.462C611.387 767.731 671.225 772.187 683.427 807.142C690.782 828.21 685.159 859.222 674.984 879.193C643.344 941.293 604.068 929.783 551.437 902.754C494.357 873.059 461.018 846.568 423.106 795.447C422.348 795.508 421.588 795.556 420.828 795.591C407.833 796.22 392.576 795.107 379.485 794.534C307.303 791.374 237.354 769.594 182.714 720.481C115.22 659.812 87.902 574.245 83.5449 485.761C78.5841 385.016 98.7932 283.623 168.092 206.473C221.997 146.462 296.755 118.32 376.144 114.451ZM420.246 629.832C528.711 617.12 532.919 486.56 523.831 402.089C515.044 320.408 472.277 263.898 384.759 272.363C354.098 277.425 329.41 288.591 311.4 314.759C277.448 364.088 274.826 427.466 278.721 485.155C284.719 573.977 321.843 640.736 420.246 629.832Z"/><path fill="#382107" d="M384.759 272.363C472.277 263.898 515.044 320.408 523.831 402.089C532.919 486.56 528.711 617.12 420.246 629.832C321.843 640.736 284.719 573.977 278.721 485.155C274.826 427.466 277.448 364.088 311.4 314.759C329.41 288.591 354.098 277.425 384.759 272.363ZM337.111 374.434C325.232 411.462 325.666 503.16 341.227 538.259C341.447 538.785 341.673 539.308 341.904 539.829C349.089 556.021 360.138 570.197 377.124 576.609C393.806 582.905 416.759 583.773 433.179 576.238C449.839 568.594 459.188 553.8 465.246 537.178C481.289 493.156 479.956 399.111 459.997 356.825C453.459 342.973 443.28 332.551 428.722 327.343C412.203 321.434 388.283 321.447 372.365 329.084C354.312 337.746 343.638 356.308 337.111 374.434Z"/><path fill="#FEFFFE" fill-opacity="0.011764706" d="M341.227 538.259C325.666 503.16 325.232 411.462 337.111 374.434C339.339 413.23 334.029 454.59 337.802 493.828C339.536 511.851 342.286 519.111 341.227 538.259Z"/><path fill="#B79162" d="M3675.52 114.522C3685.26 114.144 3695.01 114.154 3704.75 114.551C3917.88 123.771 4017.11 279.046 4006.29 479.526C4002.1 557.249 3980.45 633.269 3928.41 693.41C3910.48 714.129 3891.3 729.425 3871.3 747.71C3887.27 758.321 3921.19 767.666 3939.39 777.599C3952.1 783.833 3964.69 792.574 3968.88 807.14C3980.64 847.994 3954.59 909.839 3913.01 923.74C3889.23 931.688 3850.37 909.469 3829.52 898.263C3783.16 872.724 3740.42 839.064 3710.79 794.825C3640.18 793.083 3593.12 790.288 3528.18 757.939C3319.02 653.743 3318.68 280.875 3511.62 161.147C3563.95 128.669 3615.03 118.274 3675.52 114.522ZM3565.64 402.633C3552.04 398.609 3536.09 391.209 3522.82 398.655C3505.42 408.417 3492.83 448.251 3487.65 466.539C3474.17 514.1 3478.72 571.754 3503.89 615.061C3530.85 662.129 3575.76 696.242 3628.34 709.595C3654.55 716.501 3682.86 717.814 3709.75 715.216C3714.94 714.714 3732.55 711.756 3735.99 712.013C3766.28 735.036 3814.55 776.803 3848.56 734.432C3866.9 711.573 3867.54 671.722 3840.08 656.032C3865.54 631.132 3879.02 576.111 3879.08 541.516C3879.19 483.365 3854.83 445.591 3809.8 411.817C3807.26 333.967 3767.42 269.515 3682.66 272.684C3678.94 272.839 3675.22 273.049 3671.51 273.317C3598.82 282.91 3579.31 339.419 3565.64 402.633Z"/><path fill="#382107" d="M3671.51 273.317C3675.22 273.049 3678.94 272.839 3682.66 272.684C3767.42 269.515 3807.26 333.967 3809.8 411.817C3854.83 445.591 3879.19 483.365 3879.08 541.516C3879.02 576.111 3865.54 631.132 3840.08 656.032C3867.54 671.722 3866.9 711.573 3848.56 734.432C3814.55 776.803 3766.28 735.036 3735.99 712.013C3732.55 711.756 3714.94 714.714 3709.75 715.216C3682.86 717.814 3654.55 716.501 3628.34 709.595C3575.76 696.242 3530.85 662.129 3503.89 615.061C3478.72 571.754 3474.17 514.1 3487.65 466.539C3492.83 448.251 3505.42 408.417 3522.82 398.655C3536.09 391.209 3552.04 398.609 3565.64 402.633C3579.31 339.419 3598.82 282.91 3671.51 273.317ZM3722.65 582.15C3735.75 570.695 3743.48 554.011 3744.69 536.729C3745.74 523.382 3743.67 509.975 3738.65 497.564C3734.89 488.332 3729.84 479.587 3724.65 471.096C3713.38 452.67 3689.95 421.11 3712.33 401.929C3725.41 390.72 3739.72 393.372 3755.03 389.805C3750.48 369.159 3746.46 344.242 3727.16 331.832C3714.19 323.498 3697.27 323.739 3682.47 324.52C3666.08 326.375 3650.49 331.461 3639.88 344.9C3627.29 360.851 3614.52 394.938 3616.9 415.149C3617.3 418.463 3618.35 422.143 3621.07 424.293C3627.23 429.14 3638.63 430.43 3646.04 433.641C3683.06 449.692 3711.85 476.528 3717.95 517.86C3720.1 532.695 3720.17 547.758 3718.15 562.612C3717.36 568.27 3715.56 574.311 3715.3 579.962C3715.19 582.4 3715.26 583.274 3716.88 585.044C3719.47 584.857 3720.74 583.729 3722.65 582.15Z"/><path fill="#868C40" d="M3741.84 420.248C3746.87 420.137 3751.82 420.288 3756.79 421.179C3785.54 426.091 3811.09 442.383 3827.68 466.373C3861.43 515.753 3860.19 581.089 3824.6 629.157C3818.93 636.831 3800.11 653.648 3798.6 661.673C3800.48 671.546 3823.46 678.719 3830.5 686.91C3834.15 691.159 3836.15 696.532 3835.6 702.157C3834.62 711.983 3827.62 720.534 3820.31 726.614C3788.36 724.825 3766.91 703.349 3745.35 681.952C3729.85 685.63 3714.06 687.993 3698.16 689.013C3647.19 691.889 3599.06 676.046 3561.02 641.943C3528.93 613.172 3511.34 576.476 3509.16 533.426C3507.66 503.825 3513.54 475.963 3523.41 448.221C3526 440.944 3528.3 432.917 3533.58 427.098C3534.23 426.819 3535.39 426.111 3536.05 426.037C3543.64 425.171 3597.63 448.385 3609.17 452.5C3633.26 460.995 3658.02 469.535 3674.4 490.291C3685.57 504.435 3693.92 526.168 3691.1 544.429C3690.77 546.595 3690.78 546.698 3689 547.984C3681.11 544.681 3654.5 507.347 3633.45 498.843C3630.78 497.763 3627.79 496.048 3625.1 497.22C3623.79 505.967 3659.98 542.063 3666.75 555.599L3665.84 555.499C3627.74 551.143 3590.42 542.805 3581.13 500.169C3578.42 487.751 3576.9 476.356 3568.53 466.144C3566.38 463.526 3564.85 462.501 3561.51 462.139L3559.44 463.81C3553.55 476.058 3561.29 514.392 3565.43 527.9C3568.49 537.854 3572.68 547.564 3576.54 557.231C3588.04 586.034 3600.97 612.233 3629.68 627.239C3656 640.79 3686.61 643.423 3714.86 634.567C3739.67 626.652 3760.13 611.136 3772.19 587.707C3778.02 576.382 3780.45 564.31 3781.52 551.704C3784.53 516.336 3774.01 486.973 3755.81 457.098C3750.14 447.789 3740 437.228 3736.93 426.895C3736.18 424.389 3736.02 423.582 3737.28 421.297L3741.84 420.248Z"/><path fill="#B5B585" d="M3654.02 589.41C3661.9 589.036 3695.44 587.1 3700.45 590.794L3699.64 592.607C3684.32 596.509 3668.32 597.085 3654.02 589.41Z"/><path fill="#B79162" d="M2443.34 115.371C2469.83 113.202 2506.25 116.99 2526.03 136.667C2531.24 141.849 2537.52 152.254 2538.36 159.632C2542.69 197.651 2540.78 236.605 2540.62 274.86C2540.96 342.382 2540.72 409.906 2539.89 477.424C2572.26 436.268 2606.27 396.414 2641.81 357.956C2657.09 341.337 2684.63 307.7 2708.5 307.869C2756.65 308.209 2814.39 366.702 2788.25 415.803C2777.22 436.527 2755.21 455.299 2739.25 472.46C2716.51 495.433 2693.51 517.3 2671.21 540.704C2694.27 568.788 2718.7 596.129 2741.91 624.391C2761.06 647.719 2790.82 676.732 2802.59 704.244C2809.37 720.086 2802.24 737.183 2795.55 751.625C2780.22 777.749 2749.28 800.193 2718.63 801.849C2671.5 804.395 2639.48 748.9 2615.55 716.047C2599.07 693.603 2582.74 671.042 2566.57 648.368C2558.62 637.186 2547.95 620.734 2538.17 612.079C2537.79 642.824 2537.74 673.573 2538.04 704.319C2538.07 720.571 2538.74 737.189 2536.98 753.336C2533.62 783.988 2501.56 793.423 2475.59 796.395C2434.67 801.078 2379.04 792.634 2375.85 741.332C2373.79 708.322 2375.12 675.628 2375.14 642.643L2375.08 453.226L2375.35 282.587C2375.21 251.86 2374.74 220.763 2375.3 190.075C2376.3 135.816 2390.52 120.179 2443.34 115.371Z"/><path fill="#B79162" d="M1938.58 115.4C1944.41 115.005 1950.26 114.939 1956.1 115.202C1984.7 116.223 2029.02 127.06 2032.97 162.211C2036.73 195.686 2034.45 232.396 2034.56 266.253C2034.99 312.756 2034.98 359.263 2034.52 405.766C2034.41 428.3 2034.9 451.1 2034.02 473.585C2054.25 451.326 2072.82 427.31 2093.52 404.994C2122.37 374.978 2149.6 336.943 2183.32 312.471C2205.17 296.618 2246.71 317.19 2263.85 332.769C2285.91 352.814 2298.79 388.619 2284.27 416.532C2273.87 436.515 2253.4 453.225 2238.36 469.66C2215.23 493.42 2191.74 516.083 2169.33 540.642C2180.04 557.765 2194.6 570.685 2207.08 586.219C2233.2 618.753 2263.1 650.154 2288.27 683.224C2306.05 706.576 2304.93 731.979 2289.62 756.539C2271.39 781.226 2243.31 801.47 2211.59 801.841C2199.33 801.982 2187.32 798.345 2177.19 791.424C2151.17 773.97 2124.45 733.053 2105.5 707.097L2063.3 649.83C2054.68 637.97 2042.5 619.882 2032.33 609.999C2032.65 615.525 2032.56 621.723 2032.49 627.263C2031.93 668.01 2034.84 712.551 2031.64 752.941C2027.81 801.422 1944.69 802.835 1911.24 790.976C1888.06 782.76 1873.25 767.636 1872.93 742.315C1870.91 707.402 1871.83 672.653 1871.52 637.625C1870.58 557.115 1870.52 476.597 1871.34 396.085L1871.1 249.226C1871.03 222.171 1870.43 195.391 1872.03 168.354C1874.48 127.078 1903.43 118.498 1938.58 115.4Z"/><path fill="#B79162" d="M1550.57 308.52L1551.79 308.49C1616.37 306.995 1676.72 322.98 1724.96 367.954C1773.87 413.158 1789.25 479.857 1791.3 544.003C1795.84 686.217 1716.03 798.725 1564.67 801.48C1412.77 803.658 1326.44 711.005 1323.56 562.829C1320.73 417.787 1399.63 314.146 1550.57 308.52ZM1556.5 619.213C1564.75 613.132 1566.91 603.559 1568.39 593.908C1571.42 574.104 1573.82 516.123 1562.38 500.127C1560.68 497.756 1558.32 496.368 1555.64 495.321C1548.76 499.778 1546.36 508.926 1544.73 516.563C1540.62 535.933 1538.95 597.315 1549.94 614.503C1551.58 617.058 1553.73 618.222 1556.5 619.213Z"/><path fill="#382107" d="M1556.52 443.441C1568.78 443.169 1581.23 446.809 1591.13 454.099C1608.51 466.897 1615.29 489.051 1618.37 509.459C1624.08 547.356 1625.95 611.683 1602.43 643.261C1591.73 657.625 1577.55 663.838 1560.18 666.303C1546.55 666.705 1533.23 663.666 1522.28 655.192C1505.16 641.952 1499.26 619.034 1496.68 598.522C1491.75 559.529 1490.73 497.086 1515.56 465.34C1526.12 451.848 1539.66 445.522 1556.52 443.441ZM1556.5 619.213C1564.75 613.132 1566.91 603.559 1568.39 593.908C1571.42 574.104 1573.82 516.123 1562.38 500.127C1560.68 497.756 1558.32 496.368 1555.64 495.321C1548.76 499.778 1546.36 508.926 1544.73 516.563C1540.62 535.933 1538.95 597.315 1549.94 614.503C1551.58 617.058 1553.73 618.222 1556.5 619.213Z"/><path fill="#FEFFFE" fill-opacity="0.0078431377" d="M1555.64 495.321C1558.32 496.368 1560.68 497.756 1562.38 500.127C1573.82 516.123 1571.42 574.104 1568.39 593.908C1566.91 603.559 1564.75 613.132 1556.5 619.213C1553.73 618.222 1551.58 617.058 1549.94 614.503C1538.95 597.315 1540.62 535.933 1544.73 516.563C1546.36 508.926 1548.76 499.778 1555.64 495.321Z"/><path fill="#B79162" d="M872.145 312.454C899.044 312.346 931.982 314.475 952.141 334.88C958.747 341.567 962.099 349.22 963.861 358.332C968.419 381.9 966.141 408.773 966.088 432.807L965.883 556.767C965.917 583.337 961.753 625.444 982.227 645.47C992.844 655.854 1007.55 661.213 1022.31 660.923C1043.71 660.502 1066.32 646.634 1074.49 626.499C1081.26 609.782 1078.55 579.585 1078.52 561.161L1079.2 436.501C1079.19 413.283 1076.72 379.676 1080.59 357.427C1082.35 347.3 1085.29 339.312 1092.58 331.803C1108.18 315.748 1132.89 312.824 1154.15 312.567C1178.71 312.269 1212.22 315.279 1230.68 333.681C1236.41 339.398 1241.25 347.432 1242.9 355.413C1247.45 377.527 1245.64 407.097 1245.72 430.065L1245.58 571.248C1245.26 612.991 1246.25 654.747 1246.07 696.495C1245.98 715.003 1246.96 734.589 1244.8 752.931C1244.04 759.333 1242.49 766.171 1239.11 771.709C1231.39 784.383 1214.08 791.227 1200.25 794.446C1173.91 800.575 1140.12 799.2 1116.64 784.486C1103.37 776.17 1096.06 765.004 1092.53 749.902C1062.86 779.806 1025.89 797.467 983.785 801.252C940.347 805.158 891.393 794.793 857.44 766.273C820.843 735.532 808.627 693.591 804.543 647.484C799.671 592.494 802.774 536.286 802.752 481.098L802.811 407.724C803.044 346.851 801.04 317.835 872.145 312.454Z"/><path fill="#B79162" d="M3068.48 310.42C3190.24 306.271 3280.53 353.855 3285.59 484.658C3287.75 540.651 3286.61 595.239 3286.67 651.183C3286.73 672.545 3286.94 693.905 3287.3 715.264C3287.49 729.015 3289.78 760.753 3281.49 771.728C3257.15 803.954 3193.97 803.864 3161.57 784.788C3149.17 777.488 3142.79 765.625 3139.66 752.073C3098.35 791.467 3056.82 805.849 2999.53 800.979C2964.06 797.963 2936.27 789.087 2907.8 767.294C2905.61 765.39 2903.45 763.446 2901.33 761.462C2849.25 712.383 2850.05 615.133 2899.81 566.061C2951.51 515.068 3047.15 502.503 3116.92 505.107C3124.96 505.329 3124.93 497.107 3124.74 491.336C3122.4 420.925 3033.43 438.344 2988.87 449.924C2960.79 458.009 2938.91 474.017 2912.21 451.807C2886.95 431.508 2884.6 374.625 2907.62 352.199C2941.89 318.817 3023.57 312.72 3068.48 310.42Z"/><path fill="#382107" d="M3084.61 606.359C3094.02 605.899 3108.21 604.093 3116.4 609.529C3118.53 612.279 3119.17 615.006 3119.44 618.44C3120.63 633.877 3121.88 656.403 3111.01 668.758C3098.69 682.752 3077.66 686.338 3060.1 687.504C3051.15 687.45 3042.55 685.394 3035.35 679.868C3028.39 674.525 3024.24 666.798 3023.24 658.118C3021.97 647.159 3025.22 636.156 3032.24 627.644C3044.57 612.525 3066.19 608.123 3084.61 606.359Z"/><path fill="#FEFFFE" fill-opacity="0.011764706" d="M2301.25 474.889C2308.84 465.881 2314.71 458.176 2323.93 450.718C2325.03 465.562 2324.8 481.811 2324.83 496.793C2324.91 535.313 2326 573.795 2326.13 612.305C2326.17 622.291 2326.64 634.481 2325.14 644.187C2318.11 646.493 2303.32 626.378 2299.13 621.31C2300.65 621.46 2305.81 622.016 2306.85 621.505C2311.28 619.342 2315.62 622.367 2318.62 622.016L2319.62 620.703L2318.78 619.367C2320.1 617.155 2319.36 610.3 2319.34 607.254C2319.26 592.487 2318.95 577.245 2318.03 562.509C2317.12 547.969 2320.59 527.679 2317.25 513.9C2315.29 519.346 2315.88 525.48 2314.63 531.365C2313.77 532.408 2313.05 533.566 2311.66 533.85L2311.94 534.63L2314.73 535.426C2313.18 536.308 2311.63 537.451 2309.92 537.379C2306.93 531.315 2309.28 499.395 2307.82 490.07C2307.29 486.627 2309.83 488.489 2312.29 486.576L2311.55 485.593L2309.18 485.604L2308.59 483.748C2311.14 483.531 2310.49 483.95 2312.23 482.558C2311.05 481.222 2311.81 481.758 2309.56 481.468L2312.09 480.331L2311.55 479.689L2309.48 479.616C2310.48 479.178 2311.79 478.79 2312.84 478.438L2312.03 477.092C2308.23 475.365 2305.42 475.318 2301.25 474.889ZM2317.53 483.072C2318.24 477.353 2319.78 469.454 2316.7 464.356C2315.22 470.436 2314.26 477.409 2317.53 483.072Z"/><path fill="#FEFFFE" fill-opacity="0.0078431377" d="M1010.76 359.64C1023.69 365.288 1019.66 380.642 1020.52 391.525C1021.18 399.892 1018.87 435.164 1021.53 441.064C1026.41 438.884 1016.94 355.414 1027.18 345.725C1028.68 344.309 1031.12 344.53 1033.16 344.303C1029.46 367.743 1030.77 403.493 1030.83 428.203L1030.96 544.948C1031.04 559.853 1031.12 574.752 1031.08 589.658C1031.06 596.713 1031.94 609.409 1022.01 610.376C1008.91 603.409 1012.3 548.354 1012.25 533.486L1011.74 425.949C1011.7 405.199 1012.66 379.863 1010.76 359.64ZM1022.11 579.479C1023.6 575.418 1023.59 524.5 1022.03 520.789C1021.8 520.245 1021.75 520.301 1021.27 519.807C1018.5 530.359 1020.03 567.81 1020.42 580.323L1021.85 580.878L1022.11 579.479Z"/><path fill="#FEFFFE" fill-opacity="0.011764706" d="M2080.24 145.105C2084.94 145.817 2084.36 145.042 2087.6 147.697C2098.69 172.364 2088.48 275.882 2094.31 285.753L2096.39 285.832C2098.47 281.105 2094.66 275.747 2100.52 273.679C2104.83 277.235 2100.6 280.588 2105.34 282.639C2107.31 281.874 2108.17 281.399 2110.26 281.266C2111.06 284.084 2111.14 284.796 2111.29 287.729C2114.96 288.476 2113.71 288.758 2116.34 287.216L2117.62 283.99L2118.69 284.432L2119.37 288.214C2121.95 289.293 2120.82 289.131 2124.32 287.9C2128 282.17 2133.22 283.432 2139.82 283.503C2130.23 291.848 2092.91 332.785 2086.14 332.998C2080.55 324.337 2088.46 172.999 2081.7 153.258C2081.31 152.103 2080.53 146.657 2080.24 145.105Z"/><path fill="#FEFFFE" fill-opacity="0.0078431377" d="M3279.67 333.478C3283.17 333.274 3300.1 334.652 3302.67 336.463L3303.21 340.236C3308.39 342.636 3312 339.294 3316.81 337.466C3317.36 337.259 3316.01 332.115 3317.95 329.982C3323.34 336.873 3320.89 334.979 3323.8 339.724C3329.33 337.732 3324.04 332.769 3334.36 330.896L3335.33 330.727C3333.12 337.371 3331.41 344.17 3330.21 351.067C3328.7 359.349 3325.41 392.553 3320.45 396.979C3313.44 390.252 3306.57 373.857 3301.42 364.885C3293.96 351.899 3289.55 344.645 3279.67 333.478Z"/><path fill="#FEFFFE" fill-opacity="0.011764706" d="M2565.04 105.509C2568.84 105.428 2573.28 104.78 2576.23 106.907C2584.77 113.054 2587.67 121.822 2589.29 131.828C2589.73 134.594 2590.09 146.142 2590.63 147.771C2593.49 156.325 2596.24 163.284 2596.9 172.686C2599.05 203.493 2597.81 234.848 2598.24 265.778C2598.37 275.338 2598.36 286.306 2598.27 295.96C2598.25 297.596 2594.73 301.431 2593.83 304.598C2592.3 309.947 2593.01 319.218 2591.37 323.627C2590.67 315.339 2591.63 306.11 2591.19 297.822C2588.18 240.089 2603.31 153.09 2565.04 105.509Z"/><path fill="#FEFFFE" fill-opacity="0.015686275" d="M1820.07 405.317C1819.92 402.988 1819.58 394.351 1819.16 392.566C1817.33 384.842 1814.58 377.038 1814.57 368.992C1814.57 306.042 1815.17 243.061 1815.36 180.104C1815.4 167.774 1815.07 162.49 1824.39 153.693C1820.88 184.925 1821.48 218.115 1821.52 249.653C1821.72 285.107 1821.43 320.561 1820.67 356.008C1820.44 367.177 1821.81 396.253 1820.07 405.317Z"/><path fill="#FEFFFE" fill-opacity="0.011764706" d="M4047.94 339.759C4052.61 342.01 4054.95 343.061 4056.68 348.181C4066.34 376.716 4070.02 511.67 4057.34 537.141C4055.77 540.289 4053.21 542.166 4051.89 545.58L4050.46 545.932C4060.33 491.643 4058.87 434.382 4054.69 379.419C4053.71 366.619 4049.5 352.415 4047.94 339.759Z"/><path fill="#FEFFFE" fill-opacity="0.011764706" d="M2297.87 296.387C2302.6 296.419 2306.58 297.62 2311.3 296.85C2311.57 296.808 2314.24 296.525 2314.23 296.493C2315.57 299.728 2314.27 299.539 2317.04 301.49C2318.98 300.368 2318.47 301.207 2318.55 298.994C2320.02 258.314 2316.99 217.241 2320.42 176.691C2320.95 170.476 2326.03 162.829 2328.02 156.478C2326.92 187.957 2326.48 219.455 2326.72 250.952C2326.7 270.524 2326.96 306.679 2323.78 325.62C2315.37 315.675 2306.73 305.928 2297.87 296.387Z"/><path fill="#FEFFFE" fill-opacity="0.011764706" d="M1291.88 354.995C1304.78 361.213 1299.33 374.577 1303.07 380.787L1304.61 380.476C1304.99 377.923 1305.04 376.71 1306.36 374.414L1308.85 375.316C1319.78 372.226 1324.28 342.323 1348.83 343.51C1337.45 356.538 1326.91 370.275 1317.27 384.638C1313.37 390.542 1302.92 410.215 1297.58 411.512C1295.65 394.66 1293.31 371.786 1291.88 354.995Z"/><path fill="#FEFFFE" fill-opacity="0.011764706" d="M1799.19 720.976C1806.54 710.06 1811.26 694.79 1817.88 685.193C1822.42 686.794 1821.17 699.622 1821.11 703.974C1820.79 725.52 1820.42 747.032 1824.83 768.272C1825.63 772.141 1827.49 776.129 1828.13 779.952C1824.14 779.609 1823.22 778.18 1819.97 779.233L1818.68 783.474L1816.88 783.721C1814.71 781.035 1816.09 779.563 1815.88 774.96L1813.54 774.288L1813.39 773.439C1815.63 773.512 1817.2 773.876 1818.91 772.613C1817.85 761.569 1815.26 751.598 1814.55 740.757C1814.2 735.485 1815.68 711.666 1814.2 708.376C1804.28 712.698 1816.21 738.337 1811.01 747.917C1805.94 751.149 1805.89 747.073 1802.31 743.536C1800.31 743.18 1798.64 742.881 1797.29 742.641C1798.66 742.093 1801.72 741.46 1803.29 741.08L1803.9 740.072C1800.15 737.684 1793.01 738.171 1788.73 738.73C1791.98 733.289 1795.38 727.353 1798.88 722.127C1798.42 727.47 1796.3 734.685 1801.71 737.112C1807.54 735.624 1811.73 725.102 1806.52 720.938C1805.18 719.871 1801.09 720.788 1799.19 720.976Z"/><path fill="#FEFFFE" fill-opacity="0.011764706" d="M36.1058 527.664C34.2084 521.387 28.0222 513.091 27.3308 505.887C24.7665 479.173 25.8758 451.794 25.9519 424.928C25.9883 412.075 25.8705 388.051 36.9018 379.72C32.7075 414.532 30.8537 444.414 32.3903 479.758C33.0736 495.474 35.6875 512.525 36.1058 527.664Z"/><path fill="#FEFFFE" fill-opacity="0.015686275" d="M1290.72 778.962C1292.66 764.361 1293.82 752.657 1293.99 737.821C1294.16 723.085 1292.55 705.549 1293.4 691.178L1294.18 690.67C1299.89 694.029 1308.18 711.569 1311.66 718.204L1310.71 718.078C1306.88 717.535 1306.25 717.287 1303.56 714.596L1301.7 714.323C1297.9 720.584 1307.3 763.945 1294.93 769.373C1292.02 770.649 1294.75 774.689 1290.72 778.962Z"/><defs><linearGradient id="gradient_0" gradientUnits="userSpaceOnUse" x1="764.11127" y1="293.91727" x2="772.02399" y2="309.34647"><stop offset="0" stop-color="white" stop-opacity="0"/><stop offset="1" stop-color="white" stop-opacity="0.054901961"/></linearGradient></defs><path fill="url(#gradient_0)" d="M749.405 303.777C755.279 300.514 752.749 301.152 759.657 301.463C760.156 299.416 760.688 297.577 761.293 295.559C765.196 293.534 768.684 295.703 769.911 294.833C779.294 288.174 779.264 289.136 790.948 289.502C778.746 300.979 771.984 308.866 764.382 323.742C763.379 325.704 761.953 325.947 760.067 326.222C754.574 322.765 751.853 310.344 749.405 303.777Z"/><path fill="#FEFFFE" fill-opacity="0.011764706" d="M4017.81 790.099L4019.57 789.722C4024.33 796.685 4017.24 793.412 4027.3 799.178C4031.31 801.474 4029.75 825.18 4028.74 829.698C4027.62 834.717 4026.13 839.975 4024.45 844.827C4023.45 847.711 4025.32 849.511 4023.53 852.245C4022.54 850.812 4022.4 850.813 4022.15 849.029C4024.94 833.808 4024.65 804.138 4017.81 790.099Z"/><path fill="#FEFFFE" fill-opacity="0.011764706" d="M734.789 801.098L736.353 801.001C737.642 804.43 737.909 804.969 737.269 808.658C743.089 813.268 744.562 813.028 745.131 821.269C745.769 830.522 747.078 846.7 736.572 850.592C739.926 829.853 738.883 822.114 734.789 801.098Z"/></svg>